<svg width="70" height="70" viewBox="0 0 70 70" fill="none" xmlns="http://www.w3.org/2000/svg">
<mask id="path-1-outside-1" maskUnits="userSpaceOnUse" x="5.74509" y="6.15372" width="58" height="58" fill="black">
<rect fill="white" x="5.74509" y="6.15372" width="58" height="58"/>
<path fill-rule="evenodd" clip-rule="evenodd" d="M30 11.1537V27.6537V30.814L20.2549 47.693C18.5528 47.6419 16.8343 48.266 15.5351 49.5651C14.2208 50.8795 13.8125 52.1662 13.4324 53.3638C13.2526 53.9304 13.0792 54.477 12.8191 54.9972C12.6451 55.3453 12.504 55.6692 12.3583 56.0038C11.8263 57.2256 11.2327 58.5889 8.74509 61.7872C8.74509 61.7872 11.9138 62.2399 13.7245 62.2399C15.5352 62.2399 20.9672 62.2399 24.5886 58.6185C24.7382 58.4689 24.8788 58.3138 25.0105 58.1537H54.4856C55.0629 58.1537 55.4238 57.5287 55.1351 57.0287L43.0015 36.0126L61.4812 16.7465L57.4072 12.6725L40 29.3691V27.6537V11.1537H41V8.90372C41 8.4895 40.6642 8.15372 40.25 8.15372H39H31H29.75C29.3358 8.15372 29 8.4895 29 8.90372V11.1537H30Z"/>
</mask>
<path d="M30 11.1537H31.5V9.65372H30V11.1537ZM30 30.814L31.2991 31.564L31.5 31.2159V30.814H30ZM20.2549 47.693L20.21 49.1923L21.1058 49.2192L21.554 48.443L20.2549 47.693ZM15.5351 49.5651L14.4745 48.5044L14.4745 48.5044L15.5351 49.5651ZM13.4324 53.3638L14.8622 53.8175L14.8622 53.8175L13.4324 53.3638ZM12.8191 54.9972L14.1608 55.668L14.1608 55.668L12.8191 54.9972ZM12.3583 56.0038L10.9831 55.4049L10.9831 55.4049L12.3583 56.0038ZM8.74509 61.7872L7.56107 60.8663L5.97417 62.9066L8.53296 63.2721L8.74509 61.7872ZM24.5886 58.6185L25.6492 59.6792L25.6492 59.6792L24.5886 58.6185ZM25.0105 58.1537V56.6537H24.3022L23.8522 57.2007L25.0105 58.1537ZM55.1351 57.0287L53.8361 57.7787L53.8361 57.7787L55.1351 57.0287ZM43.0015 36.0126L41.9189 34.9743L41.1392 35.7872L41.7024 36.7626L43.0015 36.0126ZM61.4812 16.7465L62.5637 17.7848L63.5807 16.7246L62.5419 15.6858L61.4812 16.7465ZM57.4072 12.6725L58.4678 11.6118L57.429 10.573L56.3688 11.59L57.4072 12.6725ZM40 29.3691H38.5V32.8864L41.0384 30.4517L40 29.3691ZM40 11.1537V9.65372H38.5V11.1537H40ZM41 11.1537V12.6537H42.5V11.1537H41ZM29 11.1537H27.5V12.6537H29V11.1537ZM31.5 27.6537V11.1537H28.5V27.6537H31.5ZM31.5 30.814V27.6537H28.5V30.814H31.5ZM21.554 48.443L31.2991 31.564L28.701 30.064L18.9559 46.943L21.554 48.443ZM16.5958 50.6258C17.5906 49.631 18.9039 49.1531 20.21 49.1923L20.2999 46.1936C18.2018 46.1307 16.0779 46.901 14.4745 48.5044L16.5958 50.6258ZM14.8622 53.8175C15.2339 52.6461 15.5558 51.6657 16.5958 50.6258L14.4745 48.5044C12.8858 50.0932 12.391 51.6864 12.0027 52.9101L14.8622 53.8175ZM14.1608 55.668C14.4821 55.0252 14.6884 54.3653 14.8622 53.8175L12.0027 52.9101C11.8169 53.4956 11.6762 53.9288 11.4775 54.3263L14.1608 55.668ZM13.7336 56.6026C13.8809 56.2644 14.007 55.9754 14.1608 55.668L11.4775 54.3263C11.2831 54.7151 11.1271 55.0741 10.9831 55.4049L13.7336 56.6026ZM9.92912 62.7081C12.4983 59.4049 13.1547 57.9322 13.7336 56.6026L10.9831 55.4049C10.4979 56.5191 9.96702 57.7729 7.56107 60.8663L9.92912 62.7081ZM13.7245 60.7399C12.9091 60.7399 11.7359 60.6354 10.7214 60.5227C10.2238 60.4674 9.78089 60.4121 9.4625 60.3705C9.30348 60.3498 9.17597 60.3326 9.08876 60.3206C9.04516 60.3146 9.01166 60.3099 8.98937 60.3068C8.97822 60.3053 8.96988 60.3041 8.96447 60.3033C8.96177 60.3029 8.95981 60.3027 8.95859 60.3025C8.95798 60.3024 8.95757 60.3023 8.95734 60.3023C8.95722 60.3023 8.95716 60.3023 8.95714 60.3023C8.95713 60.3023 8.95715 60.3023 8.95715 60.3023C8.95718 60.3023 8.95723 60.3023 8.74509 61.7872C8.53296 63.2721 8.53303 63.2721 8.53311 63.2722C8.53316 63.2722 8.53325 63.2722 8.53334 63.2722C8.53351 63.2722 8.53374 63.2722 8.53401 63.2723C8.53455 63.2724 8.53528 63.2725 8.5362 63.2726C8.53805 63.2729 8.54066 63.2732 8.54401 63.2737C8.5507 63.2746 8.56037 63.276 8.57288 63.2778C8.59788 63.2813 8.63423 63.2863 8.68082 63.2927C8.77396 63.3055 8.90815 63.3236 9.07449 63.3453C9.40682 63.3887 9.86922 63.4465 10.3901 63.5044C11.4127 63.618 12.7292 63.7399 13.7245 63.7399V60.7399ZM23.5279 57.5579C20.3971 60.6887 15.5911 60.7399 13.7245 60.7399V63.7399C15.4792 63.7399 21.5373 63.7911 25.6492 59.6792L23.5279 57.5579ZM23.8522 57.2007C23.7512 57.3233 23.6432 57.4426 23.5279 57.5579L25.6492 59.6792C25.8331 59.4953 26.0064 59.3042 26.1688 59.1068L23.8522 57.2007ZM54.4856 56.6537H25.0105V59.6537H54.4856V56.6537ZM53.8361 57.7787C53.5474 57.2787 53.9082 56.6537 54.4856 56.6537V59.6537C56.2176 59.6537 57.3002 57.7787 56.4341 56.2787L53.8361 57.7787ZM41.7024 36.7626L53.8361 57.7787L56.4341 56.2787L44.3005 35.2626L41.7024 36.7626ZM60.3987 15.7082L41.9189 34.9743L44.084 37.051L62.5637 17.7848L60.3987 15.7082ZM56.3465 13.7331L60.4205 17.8072L62.5419 15.6858L58.4678 11.6118L56.3465 13.7331ZM41.0384 30.4517L58.4455 13.755L56.3688 11.59L38.9617 28.2866L41.0384 30.4517ZM38.5 27.6537V29.3691H41.5V27.6537H38.5ZM38.5 11.1537V27.6537H41.5V11.1537H38.5ZM41 9.65372H40V12.6537H41V9.65372ZM39.5 8.90372V11.1537H42.5V8.90372H39.5ZM40.25 9.65372C39.8358 9.65372 39.5 9.31793 39.5 8.90372H42.5C42.5 7.66108 41.4926 6.65372 40.25 6.65372V9.65372ZM39 9.65372H40.25V6.65372H39V9.65372ZM31 9.65372H39V6.65372H31V9.65372ZM29.75 9.65372H31V6.65372H29.75V9.65372ZM30.5 8.90372C30.5 9.31793 30.1642 9.65372 29.75 9.65372V6.65372C28.5074 6.65372 27.5 7.66108 27.5 8.90372H30.5ZM30.5 11.1537V8.90372H27.5V11.1537H30.5ZM30 9.65372H29V12.6537H30V9.65372Z" fill="#F2F2F2" mask="url(#path-1-outside-1)"/>
<path fill-rule="evenodd" clip-rule="evenodd" d="M25.1851 39.1537L14.8649 57.0287C14.5762 57.5287 14.9371 58.1537 15.5144 58.1537H54.4856C55.0629 58.1537 55.4238 57.5287 55.1351 57.0287L44.815 39.1537H25.1851Z" fill="#36CC84"/>
<path d="M57.4072 12.6725L61.4812 16.7465L29.5679 50.0178L24.1359 44.5858L57.4072 12.6725Z" fill="#4D81E7"/>
<path d="M24.1359 44.5858L29.5679 50.0178L24.5886 52.2812L21.8725 49.5651L24.1359 44.5858Z" fill="#F2F2F2"/>
<mask id="mask0" mask-type="alpha" maskUnits="userSpaceOnUse" x="6" y="45" width="24" height="24">
<path d="M24.5886 58.6185C20.9672 62.2399 15.5351 62.2399 13.7245 62.2399C11.9138 62.2399 8.74509 61.7872 8.74509 61.7872C11.9138 57.7132 12.0094 56.6167 12.8191 54.9972C13.6289 53.3776 13.599 51.5013 15.5351 49.5651C18.0352 47.0651 22.0885 47.0651 24.5886 49.5651C27.0886 52.0651 27.0886 56.1185 24.5886 58.6185Z" fill="#F2F2F2"/>
</mask>
<g mask="url(#mask0)">
<path d="M24.5886 58.6185C20.9672 62.2399 15.5351 62.2399 13.7245 62.2399C11.9138 62.2399 8.74509 61.7872 8.74509 61.7872C11.9138 57.7132 12.0094 56.6167 12.8191 54.9972C13.6289 53.3776 13.599 51.5013 15.5351 49.5651C18.0352 47.0651 22.0885 47.0651 24.5886 49.5651C27.0886 52.0651 27.0886 56.1185 24.5886 58.6185Z" fill="#F2F2F2"/>
<path d="M21.8036 58.02C24.6976 63.1064 14.2455 72.8358 11.2674 69.8576C8.28927 66.8795 0.877729 60.4832 3.85585 57.5051C6.83398 54.5269 9.66243 47.3314 11.7562 52.7751C13.85 58.2189 18.9096 52.9336 21.8036 58.02Z" fill="#36CC84"/>
</g>
</svg>
