<svg width="70" height="70" viewBox="0 0 70 70" fill="none" xmlns="http://www.w3.org/2000/svg">
<mask id="path-1-outside-1" maskUnits="userSpaceOnUse" x="5.73035" y="6.15372" width="58" height="58" fill="black">
<rect fill="white" x="5.73035" y="6.15372" width="58" height="58"/>
<path fill-rule="evenodd" clip-rule="evenodd" d="M29.9853 11.1537V27.6537V30.814L20.2402 47.693C18.5381 47.6419 16.8195 48.266 15.5204 49.5651C14.2061 50.8795 13.7977 52.1662 13.4177 53.3638C13.2379 53.9304 13.0645 54.477 12.8044 54.9972C12.6303 55.3453 12.4893 55.6692 12.3436 56.0038C11.8115 57.2256 11.2179 58.5889 8.73035 61.7872C8.73035 61.7872 11.899 62.2399 13.7097 62.2399C15.5204 62.2399 20.9525 62.2399 24.5738 58.6185C24.7234 58.4689 24.8641 58.3138 24.9957 58.1537H54.4708C55.0482 58.1537 55.409 57.5287 55.1204 57.0287L42.9867 36.0126L61.4665 16.7465L57.3924 12.6725L39.9853 29.3691V27.6537V11.1537H40.9853V8.90372C40.9853 8.4895 40.6495 8.15372 40.2353 8.15372H38.9853H30.9853H29.7353C29.3211 8.15372 28.9853 8.4895 28.9853 8.90372V11.1537H29.9853Z"/>
</mask>
<path d="M29.9853 11.1537H31.4853V9.65372H29.9853V11.1537ZM29.9853 30.814L31.2843 31.564L31.4853 31.2159V30.814H29.9853ZM20.2402 47.693L20.1952 49.1923L21.0911 49.2192L21.5392 48.443L20.2402 47.693ZM15.5204 49.5651L14.4598 48.5044L14.4597 48.5044L15.5204 49.5651ZM13.4177 53.3638L11.988 52.9101L11.988 52.9101L13.4177 53.3638ZM12.3436 56.0038L13.7189 56.6026L13.7189 56.6026L12.3436 56.0038ZM8.73035 61.7872L7.54633 60.8663L5.95943 62.9066L8.51822 63.2721L8.73035 61.7872ZM13.7097 62.2399L13.7097 60.7399H13.7097V62.2399ZM24.5738 58.6185L25.6345 59.6792L25.6345 59.6792L24.5738 58.6185ZM24.9957 58.1537V56.6537H24.2875L23.8374 57.2007L24.9957 58.1537ZM55.1204 57.0287L53.8213 57.7787L53.8213 57.7787L55.1204 57.0287ZM42.9867 36.0126L41.9042 34.9743L41.1245 35.7872L41.6877 36.7626L42.9867 36.0126ZM61.4665 16.7465L62.549 17.7848L63.5659 16.7246L62.5271 15.6858L61.4665 16.7465ZM57.3924 12.6725L58.4531 11.6118L57.4143 10.573L56.3541 11.5899L57.3924 12.6725ZM39.9853 29.3691H38.4853V32.8864L41.0236 30.4517L39.9853 29.3691ZM39.9853 11.1537V9.65372H38.4853V11.1537H39.9853ZM40.9853 11.1537V12.6537H42.4853V11.1537H40.9853ZM28.9853 11.1537H27.4853V12.6537H28.9853V11.1537ZM31.4853 27.6537V11.1537H28.4853V27.6537H31.4853ZM31.4853 30.814V27.6537H28.4853V30.814H31.4853ZM21.5392 48.443L31.2843 31.564L28.6862 30.064L18.9411 46.943L21.5392 48.443ZM16.5811 50.6258C17.5759 49.631 18.8891 49.1531 20.1952 49.1923L20.2851 46.1936C18.1871 46.1307 16.0632 46.901 14.4598 48.5044L16.5811 50.6258ZM14.8474 53.8175C15.2192 52.6461 15.5411 51.6657 16.5811 50.6258L14.4597 48.5044C12.871 50.0932 12.3763 51.6864 11.988 52.9101L14.8474 53.8175ZM14.146 55.668C14.4674 55.0252 14.6736 54.3653 14.8474 53.8175L11.988 52.9101C11.8022 53.4956 11.6615 53.9288 11.4627 54.3263L14.146 55.668ZM13.7189 56.6026C13.8662 56.2644 13.9923 55.9754 14.146 55.668L11.4627 54.3263C11.2684 54.7151 11.1124 55.0741 10.9683 55.4049L13.7189 56.6026ZM9.91438 62.7081C12.4836 59.4049 13.1399 57.9322 13.7189 56.6026L10.9683 55.4049C10.4832 56.5191 9.95228 57.7729 7.54633 60.8663L9.91438 62.7081ZM13.7097 60.7399C12.8944 60.7399 11.7211 60.6354 10.7067 60.5227C10.2091 60.4674 9.76614 60.4121 9.44776 60.3705C9.28874 60.3498 9.16123 60.3326 9.07401 60.3206C9.03042 60.3146 8.99692 60.3099 8.97462 60.3068C8.96348 60.3053 8.95513 60.3041 8.94973 60.3033C8.94703 60.3029 8.94506 60.3027 8.94385 60.3025C8.94324 60.3024 8.94282 60.3023 8.9426 60.3023C8.94248 60.3023 8.94242 60.3023 8.9424 60.3023C8.94239 60.3023 8.94241 60.3023 8.9424 60.3023C8.94244 60.3023 8.94248 60.3023 8.73035 61.7872C8.51822 63.2721 8.51829 63.2721 8.51838 63.2722C8.51842 63.2722 8.51851 63.2722 8.5186 63.2722C8.51878 63.2722 8.519 63.2722 8.51927 63.2723C8.51981 63.2724 8.52054 63.2725 8.52147 63.2726C8.52331 63.2729 8.52592 63.2732 8.52927 63.2737C8.53597 63.2746 8.54564 63.276 8.55814 63.2778C8.58314 63.2813 8.61949 63.2863 8.66608 63.2927C8.75922 63.3055 8.89341 63.3236 9.05975 63.3453C9.39208 63.3887 9.85448 63.4465 10.3754 63.5044C11.398 63.618 12.7144 63.7399 13.7097 63.7399V60.7399ZM23.5132 57.5579C20.3823 60.6887 15.5764 60.7399 13.7097 60.7399L13.7097 63.7399C15.4645 63.7399 21.5226 63.7911 25.6345 59.6792L23.5132 57.5579ZM23.8374 57.2007C23.7365 57.3233 23.6284 57.4426 23.5132 57.5579L25.6345 59.6792C25.8184 59.4953 25.9916 59.3042 26.154 59.1068L23.8374 57.2007ZM54.4708 56.6537H24.9957V59.6537H54.4708V56.6537ZM53.8213 57.7787C53.5326 57.2787 53.8935 56.6537 54.4708 56.6537V59.6537C56.2029 59.6537 57.2854 57.7787 56.4194 56.2787L53.8213 57.7787ZM41.6877 36.7626L53.8213 57.7787L56.4194 56.2787L44.2858 35.2626L41.6877 36.7626ZM60.3839 15.7082L41.9042 34.9743L44.0692 37.051L62.549 17.7848L60.3839 15.7082ZM56.3318 13.7331L60.4058 17.8072L62.5271 15.6858L58.4531 11.6118L56.3318 13.7331ZM41.0236 30.4517L58.4308 13.755L56.3541 11.5899L38.9469 28.2866L41.0236 30.4517ZM38.4853 27.6537V29.3691H41.4853V27.6537H38.4853ZM38.4853 11.1537V27.6537H41.4853V11.1537H38.4853ZM40.9853 9.65372H39.9853V12.6537H40.9853V9.65372ZM39.4853 8.90372V11.1537H42.4853V8.90372H39.4853ZM40.2353 9.65372C39.8211 9.65372 39.4853 9.31793 39.4853 8.90372H42.4853C42.4853 7.66108 41.4779 6.65372 40.2353 6.65372V9.65372ZM38.9853 9.65372H40.2353V6.65372H38.9853V9.65372ZM30.9853 9.65372H38.9853V6.65372H30.9853V9.65372ZM29.7353 9.65372H30.9853V6.65372H29.7353V9.65372ZM30.4853 8.90372C30.4853 9.31793 30.1495 9.65372 29.7353 9.65372V6.65372C28.4926 6.65372 27.4853 7.66108 27.4853 8.90372H30.4853ZM30.4853 11.1537V8.90372H27.4853V11.1537H30.4853ZM29.9853 9.65372H28.9853V12.6537H29.9853V9.65372Z" fill="#212C3C" mask="url(#path-1-outside-1)"/>
<path fill-rule="evenodd" clip-rule="evenodd" d="M25.1703 39.1537L14.8502 57.0287C14.5615 57.5287 14.9224 58.1537 15.4997 58.1537H54.4708C55.0482 58.1537 55.409 57.5287 55.1204 57.0287L44.8002 39.1537H25.1703Z" fill="#36CC84"/>
<path d="M57.3924 12.6725L61.4665 16.7465L29.5532 50.0178L24.1212 44.5857L57.3924 12.6725Z" fill="#4D81E7"/>
<path d="M24.1212 44.5857L29.5532 50.0178L24.5738 52.2811L21.8578 49.5651L24.1212 44.5857Z" fill="#F2F2F2"/>
<mask id="mask0" mask-type="alpha" maskUnits="userSpaceOnUse" x="6" y="45" width="24" height="24">
<path d="M24.5738 58.6185C20.9525 62.2399 15.5204 62.2399 13.7097 62.2399C11.8991 62.2399 8.73036 61.7872 8.73036 61.7872C11.8991 57.7132 11.9946 56.6167 12.8044 54.9971C13.6142 53.3776 13.5842 51.5013 15.5204 49.5651C18.0205 47.0651 22.0738 47.0651 24.5738 49.5651C27.0739 52.0651 27.0739 56.1185 24.5738 58.6185Z" fill="#F2F2F2"/>
</mask>
<g mask="url(#mask0)">
<path d="M24.5738 58.6185C20.9525 62.2399 15.5204 62.2399 13.7097 62.2399C11.8991 62.2399 8.73036 61.7872 8.73036 61.7872C11.8991 57.7132 11.9946 56.6167 12.8044 54.9971C13.6142 53.3776 13.5842 51.5013 15.5204 49.5651C18.0205 47.0651 22.0738 47.0651 24.5738 49.5651C27.0739 52.0651 27.0739 56.1185 24.5738 58.6185Z" fill="#F2F2F2"/>
<path d="M21.7888 58.02C24.6828 63.1064 14.2308 72.8357 11.2527 69.8576C8.27454 66.8795 0.863003 60.4832 3.84113 57.505C6.81925 54.5269 9.6477 47.3314 11.7415 52.7751C13.8352 58.2188 18.8948 52.9336 21.7888 58.02Z" fill="#36CC84"/>
</g>
</svg>
