<svg width="70" height="70" viewBox="0 0 70 70" fill="none" xmlns="http://www.w3.org/2000/svg">
<mask id="path-1-outside-1" maskUnits="userSpaceOnUse" x="2.73036" y="5.15372" width="63" height="61" fill="black">
<rect fill="white" x="2.73036" y="5.15372" width="63" height="61"/>
<path fill-rule="evenodd" clip-rule="evenodd" d="M29.9853 11.1537V27.6537V30.814L20.2402 47.693C18.5381 47.6419 16.8195 48.266 15.5204 49.5651C14.2061 50.8795 13.7977 52.1662 13.4177 53.3638C13.2379 53.9304 13.0645 54.477 12.8044 54.9972C12.6303 55.3453 12.4893 55.6692 12.3436 56.0038C11.8115 57.2256 11.2179 58.5889 8.73036 61.7872C8.73036 61.7872 11.899 62.2399 13.7097 62.2399C15.5204 62.2399 20.9525 62.2399 24.5738 58.6185C24.7234 58.4689 24.8641 58.3138 24.9957 58.1537H54.4708C55.0482 58.1537 55.409 57.5287 55.1204 57.0287L42.9867 36.0126L61.4665 16.7465L57.3924 12.6725L39.9853 29.3691V27.6537V11.1537H40.9853V8.90372C40.9853 8.4895 40.6495 8.15372 40.2353 8.15372H38.9853H30.9853H29.7353C29.3211 8.15372 28.9853 8.4895 28.9853 8.90372V11.1537H29.9853Z"/>
</mask>
<path d="M29.9853 11.1537H32.9853V8.15372H29.9853V11.1537ZM29.9853 30.814L32.5834 32.314L32.9853 31.6178V30.814H29.9853ZM20.2402 47.693L20.1503 50.6916L21.942 50.7454L22.8383 49.193L20.2402 47.693ZM15.5204 49.5651L17.6417 51.6864L17.6417 51.6864L15.5204 49.5651ZM13.4177 53.3638L10.5582 52.4564L10.5582 52.4564L13.4177 53.3638ZM12.8044 54.9972L10.1211 53.6555L10.1211 53.6555L12.8044 54.9972ZM12.3436 56.0038L15.0941 57.2015L15.0941 57.2015L12.3436 56.0038ZM8.73036 61.7872L6.3623 59.9454L3.18851 64.026L8.3061 64.7571L8.73036 61.7872ZM13.7097 62.2399L13.7097 59.2399H13.7097V62.2399ZM24.5738 58.6185L22.4525 56.4972L22.4525 56.4972L24.5738 58.6185ZM24.9957 58.1537V55.1537H23.5792L22.6791 56.2476L24.9957 58.1537ZM55.1204 57.0287L57.7184 55.5287L57.7184 55.5287L55.1204 57.0287ZM42.9867 36.0126L40.8217 33.936L39.2623 35.5617L40.3886 37.5126L42.9867 36.0126ZM61.4665 16.7465L63.6315 18.8232L65.6654 16.7028L63.5878 14.6252L61.4665 16.7465ZM57.3924 12.6725L59.5138 10.5512L57.4362 8.47357L55.3158 10.5074L57.3924 12.6725ZM39.9853 29.3691H36.9853V36.4036L42.062 31.5342L39.9853 29.3691ZM39.9853 11.1537V8.15372H36.9853V11.1537H39.9853ZM40.9853 11.1537V14.1537H43.9853V11.1537H40.9853ZM28.9853 11.1537H25.9853V14.1537H28.9853V11.1537ZM32.9853 27.6537V11.1537H26.9853V27.6537H32.9853ZM32.9853 30.814V27.6537H26.9853V30.814H32.9853ZM22.8383 49.193L32.5834 32.314L27.3872 29.314L17.6421 46.193L22.8383 49.193ZM17.6417 51.6864C18.3322 50.9959 19.2402 50.6643 20.1503 50.6916L20.3301 44.6943C17.836 44.6195 15.3069 45.536 13.3991 47.4438L17.6417 51.6864ZM16.2772 54.2712C16.6406 53.126 16.8761 52.452 17.6417 51.6864L13.3991 47.4438C11.536 49.3069 10.9549 51.2065 10.5582 52.4564L16.2772 54.2712ZM15.4877 56.3388C15.8703 55.5735 16.1093 54.8001 16.2772 54.2712L10.5582 52.4564C10.3665 53.0607 10.2586 53.3806 10.1211 53.6555L15.4877 56.3388ZM15.0941 57.2015C15.2431 56.8595 15.3543 56.6056 15.4877 56.3388L10.1211 53.6555C9.90639 54.0849 9.73548 54.479 9.59304 54.8061L15.0941 57.2015ZM11.0984 63.629C13.7492 60.2208 14.4683 58.6388 15.0941 57.2015L9.59304 54.8061C9.15482 55.8125 8.68663 56.957 6.3623 59.9454L11.0984 63.629ZM13.7097 59.2399C12.9843 59.2399 11.8827 59.1442 10.8723 59.0319C10.3864 58.9779 9.95318 58.9238 9.64177 58.8831C9.48641 58.8629 9.36224 58.8461 9.27798 58.8345C9.23588 58.8287 9.20381 58.8243 9.18287 58.8213C9.1724 58.8199 9.16472 58.8188 9.15996 58.8181C9.15759 58.8178 9.15594 58.8175 9.15504 58.8174C9.1546 58.8174 9.15433 58.8173 9.15426 58.8173C9.15423 58.8173 9.15424 58.8173 9.1543 58.8173C9.15433 58.8173 9.15441 58.8173 9.15442 58.8173C9.15451 58.8173 9.15462 58.8174 8.73036 61.7872C8.3061 64.7571 8.30622 64.7571 8.30636 64.7571C8.30643 64.7571 8.30658 64.7571 8.30671 64.7571C8.30696 64.7572 8.30726 64.7572 8.30761 64.7573C8.3083 64.7574 8.30919 64.7575 8.31028 64.7577C8.31244 64.758 8.31537 64.7584 8.31904 64.7589C8.32638 64.7599 8.33672 64.7614 8.3499 64.7632C8.37626 64.7669 8.41403 64.7722 8.46211 64.7788C8.55822 64.792 8.69575 64.8106 8.86574 64.8327C9.20505 64.877 9.67719 64.936 10.2097 64.9952C11.2364 65.1093 12.6244 65.2399 13.7097 65.2399V59.2399ZM22.4525 56.4972C19.8122 59.1375 15.6323 59.2399 13.7097 59.2399L13.7097 65.2399C15.4085 65.2399 22.0927 65.3423 26.6951 60.7398L22.4525 56.4972ZM22.6791 56.2476C22.6089 56.3329 22.5334 56.4162 22.4525 56.4972L26.6951 60.7398C26.9134 60.5216 27.1192 60.2946 27.3124 60.0599L22.6791 56.2476ZM54.4708 55.1537H24.9957V61.1537H54.4708V55.1537ZM52.5223 58.5287C51.6563 57.0287 52.7388 55.1537 54.4708 55.1537V61.1537C57.3576 61.1537 59.1618 58.0287 57.7184 55.5287L52.5223 58.5287ZM40.3886 37.5126L52.5223 58.5287L57.7184 55.5287L45.5848 34.5126L40.3886 37.5126ZM59.3014 14.6698L40.8217 33.936L45.1518 38.0893L63.6315 18.8232L59.3014 14.6698ZM55.2711 14.7938L59.3451 18.8678L63.5878 14.6252L59.5138 10.5512L55.2711 14.7938ZM42.062 31.5342L59.4691 14.8375L55.3158 10.5074L37.9086 27.2041L42.062 31.5342ZM36.9853 27.6537V29.3691H42.9853V27.6537H36.9853ZM36.9853 11.1537V27.6537H42.9853V11.1537H36.9853ZM40.9853 8.15372H39.9853V14.1537H40.9853V8.15372ZM37.9853 8.90372V11.1537H43.9853V8.90372H37.9853ZM40.2353 11.1537C38.9926 11.1537 37.9853 10.1463 37.9853 8.90372H43.9853C43.9853 6.83266 42.3063 5.15372 40.2353 5.15372V11.1537ZM38.9853 11.1537H40.2353V5.15372H38.9853V11.1537ZM30.9853 11.1537H38.9853V5.15372H30.9853V11.1537ZM29.7353 11.1537H30.9853V5.15372H29.7353V11.1537ZM31.9853 8.90372C31.9853 10.1464 30.9779 11.1537 29.7353 11.1537V5.15372C27.6642 5.15372 25.9853 6.83265 25.9853 8.90372H31.9853ZM31.9853 11.1537V8.90372H25.9853V11.1537H31.9853ZM29.9853 8.15372H28.9853V14.1537H29.9853V8.15372Z" fill="#212C3C" mask="url(#path-1-outside-1)"/>
<path fill-rule="evenodd" clip-rule="evenodd" d="M25.1703 39.1537L14.8502 57.0287C14.5615 57.5287 14.9224 58.1537 15.4997 58.1537H54.4708C55.0482 58.1537 55.409 57.5287 55.1204 57.0287L44.8002 39.1537H25.1703Z" fill="#36CC84"/>
<path d="M57.3924 12.6725L61.4665 16.7465L29.5532 50.0178L24.1212 44.5857L57.3924 12.6725Z" fill="#4D81E7"/>
<path d="M24.1212 44.5857L29.5532 50.0178L24.5738 52.2811L21.8578 49.5651L24.1212 44.5857Z" fill="#F2F2F2"/>
<mask id="mask0" mask-type="alpha" maskUnits="userSpaceOnUse" x="6" y="45" width="24" height="24">
<path d="M24.5738 58.6185C20.9525 62.2399 15.5204 62.2399 13.7097 62.2399C11.8991 62.2399 8.73036 61.7872 8.73036 61.7872C11.8991 57.7132 11.9946 56.6167 12.8044 54.9971C13.6142 53.3776 13.5842 51.5013 15.5204 49.5651C18.0204 47.0651 22.0738 47.0651 24.5738 49.5651C27.0739 52.0651 27.0739 56.1185 24.5738 58.6185Z" fill="#F2F2F2"/>
</mask>
<g mask="url(#mask0)">
<path d="M24.5738 58.6185C20.9525 62.2399 15.5204 62.2399 13.7097 62.2399C11.8991 62.2399 8.73036 61.7872 8.73036 61.7872C11.8991 57.7132 11.9946 56.6167 12.8044 54.9971C13.6142 53.3776 13.5842 51.5013 15.5204 49.5651C18.0204 47.0651 22.0738 47.0651 24.5738 49.5651C27.0739 52.0651 27.0739 56.1185 24.5738 58.6185Z" fill="#F2F2F2"/>
<path d="M21.7888 58.02C24.6828 63.1064 14.2308 72.8357 11.2527 69.8576C8.27454 66.8795 0.863003 60.4832 3.84113 57.505C6.81925 54.5269 9.6477 47.3314 11.7415 52.7751C13.8352 58.2188 18.8948 52.9336 21.7888 58.02Z" fill="#36CC84"/>
</g>
</svg>
