<svg width="70" height="70" viewBox="0 0 70 70" fill="none" xmlns="http://www.w3.org/2000/svg">
<mask id="path-1-outside-1" maskUnits="userSpaceOnUse" x="2.74509" y="5.15372" width="63" height="61" fill="black">
<rect fill="white" x="2.74509" y="5.15372" width="63" height="61"/>
<path fill-rule="evenodd" clip-rule="evenodd" d="M30 11.1537V27.6537V30.814L20.2549 47.693C18.5528 47.6419 16.8343 48.266 15.5351 49.5651C14.2208 50.8795 13.8125 52.1662 13.4324 53.3638C13.2526 53.9304 13.0792 54.477 12.8191 54.9972C12.6451 55.3453 12.504 55.6692 12.3583 56.0038C11.8263 57.2256 11.2327 58.5889 8.74509 61.7872C8.74509 61.7872 11.9138 62.2399 13.7245 62.2399C15.5351 62.2399 20.9672 62.2399 24.5886 58.6185C24.7381 58.4689 24.8788 58.3138 25.0105 58.1537H54.4856C55.0629 58.1537 55.4238 57.5287 55.1351 57.0287L43.0015 36.0126L61.4812 16.7465L57.4072 12.6725L40 29.3691V27.6537V11.1537H41V8.90372C41 8.4895 40.6642 8.15372 40.25 8.15372H39H31H29.75C29.3358 8.15372 29 8.4895 29 8.90372V11.1537H30Z"/>
</mask>
<path d="M30 11.1537H33V8.15372H30V11.1537ZM30 30.814L32.5981 32.314L33 31.6178V30.814H30ZM20.2549 47.693L20.165 50.6916L21.9567 50.7454L22.853 49.193L20.2549 47.693ZM15.5351 49.5651L17.6565 51.6864L17.6565 51.6864L15.5351 49.5651ZM13.4324 53.3638L16.2919 54.2712L16.2919 54.2712L13.4324 53.3638ZM12.8191 54.9972L10.1358 53.6555L10.1358 53.6555L12.8191 54.9972ZM12.3583 56.0038L9.60778 54.8061L9.60778 54.8061L12.3583 56.0038ZM8.74509 61.7872L6.37704 59.9454L3.20325 64.026L8.32083 64.7571L8.74509 61.7872ZM24.5886 58.6185L22.4672 56.4972L22.4672 56.4972L24.5886 58.6185ZM25.0105 58.1537V55.1537H23.5939L22.6939 56.2476L25.0105 58.1537ZM55.1351 57.0287L57.7332 55.5287L57.7332 55.5287L55.1351 57.0287ZM43.0015 36.0126L40.8364 33.936L39.277 35.5617L40.4034 37.5126L43.0015 36.0126ZM61.4812 16.7465L63.6463 18.8232L65.6801 16.7028L63.6025 14.6252L61.4812 16.7465ZM57.4072 12.6725L59.5285 10.5512L57.4509 8.47357L55.3305 10.5074L57.4072 12.6725ZM40 29.3691H37V36.4037L42.0767 31.5342L40 29.3691ZM40 11.1537V8.15372H37V11.1537H40ZM41 11.1537V14.1537H44V11.1537H41ZM29 11.1537H26V14.1537H29V11.1537ZM33 27.6537V11.1537H27V27.6537H33ZM33 30.814V27.6537H27V30.814H33ZM22.853 49.193L32.5981 32.314L27.4019 29.314L17.6568 46.193L22.853 49.193ZM17.6565 51.6864C18.347 50.9959 19.2549 50.6643 20.165 50.6916L20.3448 44.6943C17.8508 44.6195 15.3216 45.536 13.4138 47.4438L17.6565 51.6864ZM16.2919 54.2712C16.6553 53.126 16.8909 52.452 17.6565 51.6864L13.4138 47.4438C11.5507 49.3069 10.9696 51.2065 10.573 52.4564L16.2919 54.2712ZM15.5024 56.3388C15.8851 55.5735 16.1241 54.8001 16.2919 54.2712L10.573 52.4564C10.3812 53.0607 10.2733 53.3806 10.1358 53.6555L15.5024 56.3388ZM15.1089 57.2015C15.2578 56.8595 15.369 56.6056 15.5024 56.3388L10.1358 53.6555C9.92113 54.0849 9.75022 54.479 9.60778 54.8061L15.1089 57.2015ZM11.1132 63.629C13.764 60.2208 14.483 58.6388 15.1089 57.2015L9.60778 54.8061C9.16955 55.8125 8.70136 56.957 6.37704 59.9454L11.1132 63.629ZM13.7245 59.2399C12.9991 59.2399 11.8975 59.1442 10.8871 59.0319C10.4011 58.9779 9.96792 58.9238 9.65651 58.8831C9.50115 58.8629 9.37698 58.8461 9.29273 58.8345C9.25062 58.8287 9.21855 58.8243 9.19761 58.8213C9.18714 58.8199 9.17946 58.8188 9.17471 58.8181C9.17233 58.8178 9.17068 58.8175 9.16979 58.8174C9.16934 58.8174 9.16908 58.8173 9.169 58.8173C9.16897 58.8173 9.16898 58.8173 9.16904 58.8173C9.16907 58.8173 9.16915 58.8173 9.16916 58.8173C9.16926 58.8173 9.16936 58.8174 8.74509 61.7872C8.32083 64.7571 8.32096 64.7571 8.3211 64.7571C8.32116 64.7571 8.32131 64.7571 8.32144 64.7571C8.32169 64.7572 8.32199 64.7572 8.32234 64.7573C8.32304 64.7574 8.32393 64.7575 8.32501 64.7577C8.32717 64.758 8.3301 64.7584 8.33377 64.7589C8.34112 64.7599 8.35145 64.7614 8.36463 64.7632C8.39099 64.7669 8.42877 64.7722 8.47684 64.7788C8.57295 64.792 8.71048 64.8106 8.88048 64.8327C9.21978 64.877 9.69192 64.936 10.2245 64.9952C11.2511 65.1093 12.6392 65.2399 13.7245 65.2399V59.2399ZM22.4672 56.4972C19.8269 59.1375 15.6471 59.2399 13.7245 59.2399V65.2399C15.4232 65.2399 22.1074 65.3423 26.7099 60.7398L22.4672 56.4972ZM22.6939 56.2476C22.6237 56.3329 22.5482 56.4163 22.4672 56.4972L26.7099 60.7398C26.9281 60.5216 27.1339 60.2946 27.3271 60.0599L22.6939 56.2476ZM54.4856 55.1537H25.0105V61.1537H54.4856V55.1537ZM52.537 58.5287C51.671 57.0287 52.7535 55.1537 54.4856 55.1537V61.1537C57.3723 61.1537 59.1765 58.0287 57.7332 55.5287L52.537 58.5287ZM40.4034 37.5126L52.537 58.5287L57.7332 55.5287L45.5995 34.5126L40.4034 37.5126ZM59.3162 14.6698L40.8364 33.936L45.1665 38.0893L63.6463 18.8232L59.3162 14.6698ZM55.2858 14.7938L59.3599 18.8678L63.6025 14.6252L59.5285 10.5512L55.2858 14.7938ZM42.0767 31.5342L59.4838 14.8375L55.3305 10.5074L37.9233 27.2041L42.0767 31.5342ZM37 27.6537V29.3691H43V27.6537H37ZM37 11.1537V27.6537H43V11.1537H37ZM41 8.15372H40V14.1537H41V8.15372ZM38 8.90372V11.1537H44V8.90372H38ZM40.25 11.1537C39.0074 11.1537 38 10.1464 38 8.90372H44C44 6.83265 42.3211 5.15372 40.25 5.15372V11.1537ZM39 11.1537H40.25V5.15372H39V11.1537ZM31 11.1537H39V5.15372H31V11.1537ZM29.75 11.1537H31V5.15372H29.75V11.1537ZM32 8.90372C32 10.1464 30.9926 11.1537 29.75 11.1537V5.15372C27.6789 5.15372 26 6.83265 26 8.90372H32ZM32 11.1537V8.90372H26V11.1537H32ZM30 8.15372H29V14.1537H30V8.15372Z" fill="#F2F2F2" mask="url(#path-1-outside-1)"/>
<path fill-rule="evenodd" clip-rule="evenodd" d="M25.1851 39.1537L14.8649 57.0287C14.5762 57.5287 14.9371 58.1537 15.5144 58.1537H54.4856C55.0629 58.1537 55.4238 57.5287 55.1351 57.0287L44.815 39.1537H25.1851Z" fill="#36CC84"/>
<path d="M57.4072 12.6725L61.4812 16.7465L29.5679 50.0178L24.1359 44.5858L57.4072 12.6725Z" fill="#4D81E7"/>
<path d="M24.1359 44.5858L29.5679 50.0178L24.5886 52.2812L21.8725 49.5651L24.1359 44.5858Z" fill="#F2F2F2"/>
<mask id="mask0" mask-type="alpha" maskUnits="userSpaceOnUse" x="6" y="45" width="24" height="24">
<path d="M24.5886 58.6185C20.9672 62.2399 15.5352 62.2399 13.7245 62.2399C11.9138 62.2399 8.74509 61.7872 8.74509 61.7872C11.9138 57.7132 12.0094 56.6167 12.8191 54.9972C13.6289 53.3776 13.599 51.5013 15.5352 49.5651C18.0352 47.0651 22.0885 47.0651 24.5886 49.5651C27.0886 52.0651 27.0886 56.1185 24.5886 58.6185Z" fill="#F2F2F2"/>
</mask>
<g mask="url(#mask0)">
<path d="M24.5886 58.6185C20.9672 62.2399 15.5352 62.2399 13.7245 62.2399C11.9138 62.2399 8.74509 61.7872 8.74509 61.7872C11.9138 57.7132 12.0094 56.6167 12.8191 54.9972C13.6289 53.3776 13.599 51.5013 15.5352 49.5651C18.0352 47.0651 22.0885 47.0651 24.5886 49.5651C27.0886 52.0651 27.0886 56.1185 24.5886 58.6185Z" fill="#F2F2F2"/>
<path d="M21.8036 58.02C24.6976 63.1064 14.2455 72.8358 11.2674 69.8576C8.28927 66.8795 0.877733 60.4832 3.85586 57.5051C6.83398 54.5269 9.66243 47.3314 11.7562 52.7751C13.85 58.2189 18.9096 52.9336 21.8036 58.02Z" fill="#36CC84"/>
</g>
</svg>
