<svg width="75" height="75" viewBox="0 0 75 75" fill="none" xmlns="http://www.w3.org/2000/svg">
<mask id="path-1-outside-1" maskUnits="userSpaceOnUse" x="5.73035" y="8.15372" width="63" height="61" fill="black">
<rect fill="white" x="5.73035" y="8.15372" width="63" height="61"/>
<path fill-rule="evenodd" clip-rule="evenodd" d="M32.9853 14.1537V30.6537V33.814L23.2402 50.693C21.5381 50.6419 19.8195 51.266 18.5204 52.5651C17.2061 53.8795 16.7977 55.1662 16.4177 56.3638C16.2379 56.9304 16.0645 57.477 15.8044 57.9972C15.6303 58.3453 15.4893 58.6692 15.3436 59.0038C14.8115 60.2256 14.2179 61.5889 11.7304 64.7872C11.7304 64.7872 14.899 65.2399 16.7097 65.2399C18.5204 65.2399 23.9525 65.2399 27.5738 61.6185C27.7234 61.4689 27.8641 61.3138 27.9957 61.1537H57.4708C58.0482 61.1537 58.409 60.5287 58.1204 60.0287L45.9867 39.0126L64.4665 19.7465L60.3924 15.6725L42.9853 32.3691V30.6537V14.1537H43.9853V11.9037C43.9853 11.4895 43.6495 11.1537 43.2353 11.1537H41.9853H33.9853H32.7353C32.3211 11.1537 31.9853 11.4895 31.9853 11.9037V14.1537H32.9853Z"/>
</mask>
<path d="M32.9853 14.1537H35.9853V11.1537H32.9853V14.1537ZM32.9853 33.814L35.5834 35.314L35.9853 34.6178V33.814H32.9853ZM23.2402 50.693L23.1503 53.6916L24.942 53.7454L25.8383 52.193L23.2402 50.693ZM18.5204 52.5651L20.6417 54.6864L20.6417 54.6864L18.5204 52.5651ZM16.4177 56.3638L19.2772 57.2712L19.2772 57.2712L16.4177 56.3638ZM15.8044 57.9972L13.1211 56.6555L13.1211 56.6555L15.8044 57.9972ZM15.3436 59.0038L12.593 57.8061L12.593 57.8061L15.3436 59.0038ZM11.7304 64.7872L9.3623 62.9454L6.18851 67.026L11.3061 67.7571L11.7304 64.7872ZM27.5738 61.6185L25.4525 59.4972L25.4525 59.4972L27.5738 61.6185ZM27.9957 61.1537V58.1537H26.5792L25.6791 59.2476L27.9957 61.1537ZM58.1204 60.0287L60.7184 58.5287L60.7184 58.5287L58.1204 60.0287ZM45.9867 39.0126L43.8217 36.936L42.2623 38.5617L43.3886 40.5126L45.9867 39.0126ZM64.4665 19.7465L66.6315 21.8232L68.6654 19.7028L66.5878 17.6252L64.4665 19.7465ZM60.3924 15.6725L62.5137 13.5512L60.4362 11.4736L58.3158 13.5074L60.3924 15.6725ZM42.9853 32.3691H39.9853V39.4037L45.0619 34.5342L42.9853 32.3691ZM42.9853 14.1537V11.1537H39.9853V14.1537H42.9853ZM43.9853 14.1537V17.1537H46.9853V14.1537H43.9853ZM31.9853 14.1537H28.9853V17.1537H31.9853V14.1537ZM35.9853 30.6537V14.1537H29.9853V30.6537H35.9853ZM35.9853 33.814V30.6537H29.9853V33.814H35.9853ZM25.8383 52.193L35.5834 35.314L30.3872 32.314L20.6421 49.193L25.8383 52.193ZM20.6417 54.6864C21.3322 53.9959 22.2402 53.6643 23.1503 53.6916L23.3301 47.6943C20.836 47.6195 18.3068 48.536 16.3991 50.4438L20.6417 54.6864ZM19.2772 57.2712C19.6406 56.126 19.8761 55.452 20.6417 54.6864L16.3991 50.4438C14.536 52.3069 13.9549 54.2065 13.5582 55.4564L19.2772 57.2712ZM18.4877 59.3388C18.8703 58.5735 19.1093 57.8001 19.2772 57.2712L13.5582 55.4564C13.3665 56.0607 13.2586 56.3806 13.1211 56.6555L18.4877 59.3388ZM18.0941 60.2015C18.2431 59.8595 18.3543 59.6056 18.4877 59.3388L13.1211 56.6555C12.9064 57.0849 12.7355 57.479 12.593 57.8061L18.0941 60.2015ZM14.0984 66.629C16.7492 63.2208 17.4683 61.6388 18.0941 60.2015L12.593 57.8061C12.1548 58.8125 11.6866 59.957 9.3623 62.9454L14.0984 66.629ZM16.7097 62.2399C15.9843 62.2399 14.8827 62.1442 13.8723 62.0319C13.3864 61.9779 12.9532 61.9238 12.6418 61.8831C12.4864 61.8629 12.3622 61.8461 12.278 61.8345C12.2359 61.8287 12.2038 61.8243 12.1829 61.8213C12.1724 61.8199 12.1647 61.8188 12.16 61.8181C12.1576 61.8178 12.1559 61.8175 12.155 61.8174C12.1546 61.8174 12.1543 61.8173 12.1543 61.8173C12.1542 61.8173 12.1542 61.8173 12.1543 61.8173C12.1543 61.8173 12.1544 61.8173 12.1544 61.8173C12.1545 61.8173 12.1546 61.8174 11.7304 64.7872C11.3061 67.7571 11.3062 67.7571 11.3064 67.7571C11.3064 67.7571 11.3066 67.7571 11.3067 67.7571C11.307 67.7572 11.3073 67.7572 11.3076 67.7573C11.3083 67.7574 11.3092 67.7575 11.3103 67.7577C11.3124 67.758 11.3154 67.7584 11.319 67.7589C11.3264 67.7599 11.3367 67.7614 11.3499 67.7632C11.3763 67.7669 11.414 67.7722 11.4621 67.7788C11.5582 67.792 11.6957 67.8106 11.8657 67.8327C12.205 67.877 12.6772 67.936 13.2097 67.9952C14.2364 68.1093 15.6244 68.2399 16.7097 68.2399V62.2399ZM25.4525 59.4972C22.8122 62.1375 18.6323 62.2399 16.7097 62.2399V68.2399C18.4085 68.2399 25.0927 68.3423 29.6951 63.7398L25.4525 59.4972ZM25.6791 59.2476C25.6089 59.3329 25.5334 59.4162 25.4525 59.4972L29.6951 63.7398C29.9134 63.5216 30.1192 63.2946 30.3123 63.0599L25.6791 59.2476ZM57.4708 58.1537H27.9957V64.1537H57.4708V58.1537ZM55.5223 61.5287C54.6563 60.0287 55.7388 58.1537 57.4708 58.1537V64.1537C60.3576 64.1537 62.1618 61.0287 60.7184 58.5287L55.5223 61.5287ZM43.3886 40.5126L55.5223 61.5287L60.7184 58.5287L48.5848 37.5126L43.3886 40.5126ZM62.3014 17.6698L43.8217 36.936L48.1518 41.0893L66.6315 21.8232L62.3014 17.6698ZM58.2711 17.7938L62.3451 21.8678L66.5878 17.6252L62.5137 13.5512L58.2711 17.7938ZM45.0619 34.5342L62.4691 17.8375L58.3158 13.5074L40.9086 30.2041L45.0619 34.5342ZM39.9853 30.6537V32.3691H45.9853V30.6537H39.9853ZM39.9853 14.1537V30.6537H45.9853V14.1537H39.9853ZM43.9853 11.1537H42.9853V17.1537H43.9853V11.1537ZM40.9853 11.9037V14.1537H46.9853V11.9037H40.9853ZM43.2353 14.1537C41.9926 14.1537 40.9853 13.1464 40.9853 11.9037H46.9853C46.9853 9.83265 45.3063 8.15372 43.2353 8.15372V14.1537ZM41.9853 14.1537H43.2353V8.15372H41.9853V14.1537ZM33.9853 14.1537H41.9853V8.15372H33.9853V14.1537ZM32.7353 14.1537H33.9853V8.15372H32.7353V14.1537ZM34.9853 11.9037C34.9853 13.1464 33.9779 14.1537 32.7353 14.1537V8.15372C30.6642 8.15372 28.9853 9.83265 28.9853 11.9037H34.9853ZM34.9853 14.1537V11.9037H28.9853V14.1537H34.9853ZM32.9853 11.1537H31.9853V17.1537H32.9853V11.1537Z" fill="#212C3C" mask="url(#path-1-outside-1)"/>
<path fill-rule="evenodd" clip-rule="evenodd" d="M28.1703 42.1537L17.8502 60.0287C17.5615 60.5287 17.9224 61.1537 18.4997 61.1537H57.4708C58.0482 61.1537 58.409 60.5287 58.1204 60.0287L47.8002 42.1537H28.1703Z" fill="#36CC84"/>
<path d="M60.3924 15.6725L64.4665 19.7465L32.5532 53.0178L27.1212 47.5857L60.3924 15.6725Z" fill="#4D81E7"/>
<path d="M27.1212 47.5857L32.5532 53.0178L27.5738 55.2811L24.8578 52.5651L27.1212 47.5857Z" fill="#F2F2F2"/>
<mask id="mask0" mask-type="alpha" maskUnits="userSpaceOnUse" x="9" y="48" width="24" height="24">
<path d="M27.5738 61.6185C23.9525 65.2399 18.5204 65.2399 16.7097 65.2399C14.8991 65.2399 11.7304 64.7872 11.7304 64.7872C14.8991 60.7132 14.9946 59.6167 15.8044 57.9971C16.6142 56.3776 16.5842 54.5013 18.5204 52.5651C21.0204 50.0651 25.0738 50.0651 27.5738 52.5651C30.0739 55.0651 30.0739 59.1185 27.5738 61.6185Z" fill="#F2F2F2"/>
</mask>
<g mask="url(#mask0)">
<path d="M27.5738 61.6185C23.9525 65.2399 18.5204 65.2399 16.7097 65.2399C14.8991 65.2399 11.7304 64.7872 11.7304 64.7872C14.8991 60.7132 14.9946 59.6167 15.8044 57.9971C16.6142 56.3776 16.5842 54.5013 18.5204 52.5651C21.0204 50.0651 25.0738 50.0651 27.5738 52.5651C30.0739 55.0651 30.0739 59.1185 27.5738 61.6185Z" fill="#F2F2F2"/>
<path d="M24.7888 61.02C27.6828 66.1064 17.2308 75.8357 14.2527 72.8576C11.2745 69.8795 3.863 63.4832 6.84112 60.505C9.81924 57.5269 12.6477 50.3314 14.7415 55.7751C16.8352 61.2188 21.8948 55.9336 24.7888 61.02Z" fill="#36CC84"/>
</g>
</svg>
