<svg width="75" height="75" viewBox="0 0 75 75" fill="none" xmlns="http://www.w3.org/2000/svg">
<path d="M23.2177 51.4426L23.6656 51.4561L23.8897 51.068L33.6348 34.189L33.7353 34.0149V33.814V14.1537V13.4037H32.9853H32.7353V11.9037H43.2353L43.2353 13.4037H42.9853H42.2353V14.1537V32.3691V34.1278L43.5044 32.9104L60.3815 16.7222L63.4167 19.7574L45.4455 38.4935L45.0556 38.8999L45.3372 39.3876L57.4708 60.4037H27.9957H27.6416L27.4166 60.6772C27.3003 60.8186 27.1759 60.9558 27.0435 61.0882C23.6674 64.4643 18.5484 64.4899 16.7097 64.4899C15.8243 64.4899 14.5705 64.3747 13.5382 64.2585C13.3903 64.2419 13.2478 64.2253 13.1124 64.2092C13.2027 64.0875 13.29 63.9687 13.3744 63.8528C15.0489 61.5513 15.5668 60.3699 16.0312 59.3032C16.1777 58.9668 16.3113 58.6603 16.4752 58.3326C16.7617 57.7596 16.9502 57.1654 17.1248 56.6151L17.1326 56.5907C17.5084 55.4062 17.8736 54.2726 19.0507 53.0954C20.1977 51.9485 21.7136 51.3975 23.2177 51.4426ZM45.2353 27.0933V16.4037H45.4853H46.2353V15.6537V11.9037C46.2353 10.2469 44.8921 8.90372 43.2353 8.90372H32.7353C31.0784 8.90372 29.7353 10.2469 29.7353 11.9037V15.6537V16.4037H30.4853H30.7353V33.2111L21.8988 48.5164C20.0829 48.7586 18.3253 49.5782 16.9294 50.9741C15.2269 52.6767 14.6808 54.3982 14.2888 55.6336L14.2845 55.6474L14.2731 55.6833C14.084 56.2792 13.9599 56.655 13.7919 56.9909C13.5912 57.3925 13.4301 57.7624 13.2887 58.087L13.2863 58.0927L13.2862 58.0927L13.2605 58.1518L13.2605 58.1519L13.2498 58.1765C12.7967 59.2176 12.2694 60.4294 9.95431 63.4058L8.36742 65.4461L7.57397 66.4663L8.85337 66.6491L11.3982 67.0126C11.4047 67.0136 11.4098 67.0143 11.4133 67.0148L11.4145 67.0149L11.4159 67.0151L12.1546 67.1207L12.1556 67.1139C12.468 67.1538 12.8603 67.2017 13.2926 67.2498C14.3172 67.3636 15.6693 67.4899 16.7096 67.4899C16.7096 67.4899 16.7097 67.4899 16.7097 67.4899L16.7734 67.4899H16.7735L16.8025 67.4899C18.6249 67.4906 24.6911 67.4931 28.9662 63.4037H57.4708C59.7803 63.4037 61.2236 60.9037 60.0689 58.9037L48.7801 39.3508L67.1072 20.2438L67.6156 19.7137L67.0962 19.1943L60.9446 13.0427L60.4252 12.5233L59.8951 13.0318L45.2353 27.0933Z" fill="#212C3C" stroke="#F2F2F2" stroke-width="1.5"/>
<mask id="path-2-outside-1" maskUnits="userSpaceOnUse" x="8.73035" y="9.15372" width="58" height="58" fill="black">
<rect fill="white" x="8.73035" y="9.15372" width="58" height="58"/>
<path fill-rule="evenodd" clip-rule="evenodd" d="M32.9853 14.1537V30.6537V33.814L23.2402 50.693C21.5381 50.6419 19.8195 51.266 18.5204 52.5651C17.2061 53.8795 16.7977 55.1662 16.4177 56.3638C16.2379 56.9304 16.0645 57.477 15.8044 57.9972C15.6303 58.3453 15.4893 58.6692 15.3436 59.0038C14.8115 60.2256 14.2179 61.5889 11.7304 64.7872C11.7304 64.7872 14.899 65.2399 16.7097 65.2399C18.5204 65.2399 23.9525 65.2399 27.5738 61.6185C27.7234 61.4689 27.8641 61.3138 27.9957 61.1537H57.4708C58.0482 61.1537 58.409 60.5287 58.1204 60.0287L45.9867 39.0126L64.4665 19.7465L60.3924 15.6725L42.9853 32.3691V30.6537V14.1537H43.9853V11.9037C43.9853 11.4895 43.6495 11.1537 43.2353 11.1537H41.9853H33.9853H32.7353C32.3211 11.1537 31.9853 11.4895 31.9853 11.9037V14.1537H32.9853Z"/>
</mask>
<path fill-rule="evenodd" clip-rule="evenodd" d="M32.9853 14.1537V30.6537V33.814L23.2402 50.693C21.5381 50.6419 19.8195 51.266 18.5204 52.5651C17.2061 53.8795 16.7977 55.1662 16.4177 56.3638C16.2379 56.9304 16.0645 57.477 15.8044 57.9972C15.6303 58.3453 15.4893 58.6692 15.3436 59.0038C14.8115 60.2256 14.2179 61.5889 11.7304 64.7872C11.7304 64.7872 14.899 65.2399 16.7097 65.2399C18.5204 65.2399 23.9525 65.2399 27.5738 61.6185C27.7234 61.4689 27.8641 61.3138 27.9957 61.1537H57.4708C58.0482 61.1537 58.409 60.5287 58.1204 60.0287L45.9867 39.0126L64.4665 19.7465L60.3924 15.6725L42.9853 32.3691V30.6537V14.1537H43.9853V11.9037C43.9853 11.4895 43.6495 11.1537 43.2353 11.1537H41.9853H33.9853H32.7353C32.3211 11.1537 31.9853 11.4895 31.9853 11.9037V14.1537H32.9853Z" fill="#F2F2F2"/>
<path d="M32.9853 14.1537H34.4853V12.6537H32.9853V14.1537ZM32.9853 33.814L34.2843 34.564L34.4853 34.2159V33.814H32.9853ZM23.2402 50.693L23.1952 52.1923L24.0911 52.2192L24.5392 51.443L23.2402 50.693ZM18.5204 52.5651L17.4598 51.5044L17.4597 51.5044L18.5204 52.5651ZM16.4177 56.3638L17.8474 56.8175L17.8474 56.8175L16.4177 56.3638ZM15.8044 57.9972L17.146 58.668L17.146 58.668L15.8044 57.9972ZM15.3436 59.0038L13.9683 58.4049L13.9683 58.4049L15.3436 59.0038ZM11.7304 64.7872L10.5463 63.8663L8.95943 65.9066L11.5182 66.2721L11.7304 64.7872ZM27.5738 61.6185L28.6345 62.6792L28.6345 62.6792L27.5738 61.6185ZM27.9957 61.1537V59.6537H27.2875L26.8374 60.2007L27.9957 61.1537ZM58.1204 60.0287L56.8213 60.7787L56.8213 60.7787L58.1204 60.0287ZM45.9867 39.0126L44.9042 37.9743L44.1245 38.7872L44.6877 39.7626L45.9867 39.0126ZM64.4665 19.7465L65.549 20.7848L66.5659 19.7246L65.5271 18.6858L64.4665 19.7465ZM60.3924 15.6725L61.4531 14.6118L60.4143 13.573L59.3541 14.59L60.3924 15.6725ZM42.9853 32.3691H41.4853V35.8864L44.0236 33.4517L42.9853 32.3691ZM42.9853 14.1537V12.6537H41.4853V14.1537H42.9853ZM43.9853 14.1537V15.6537H45.4853V14.1537H43.9853ZM31.9853 14.1537H30.4853V15.6537H31.9853V14.1537ZM34.4853 30.6537V14.1537H31.4853V30.6537H34.4853ZM34.4853 33.814V30.6537H31.4853V33.814H34.4853ZM24.5392 51.443L34.2843 34.564L31.6862 33.064L21.9411 49.943L24.5392 51.443ZM19.5811 53.6258C20.5759 52.631 21.8891 52.1531 23.1952 52.1923L23.2851 49.1937C21.1871 49.1307 19.0632 49.901 17.4598 51.5044L19.5811 53.6258ZM17.8474 56.8175C18.2192 55.6461 18.5411 54.6657 19.5811 53.6258L17.4597 51.5044C15.871 53.0932 15.3763 54.6864 14.988 55.9101L17.8474 56.8175ZM17.146 58.668C17.4674 58.0252 17.6736 57.3653 17.8474 56.8175L14.988 55.9101C14.8022 56.4956 14.6615 56.9288 14.4627 57.3263L17.146 58.668ZM16.7189 59.6026C16.8662 59.2644 16.9923 58.9754 17.146 58.668L14.4627 57.3263C14.2684 57.7151 14.1124 58.0741 13.9683 58.4049L16.7189 59.6026ZM12.9144 65.7081C15.4836 62.4049 16.1399 60.9322 16.7189 59.6026L13.9683 58.4049C13.4832 59.5191 12.9523 60.7729 10.5463 63.8663L12.9144 65.7081ZM16.7097 63.7399C15.8944 63.7399 14.7211 63.6354 13.7067 63.5227C13.2091 63.4674 12.7661 63.4121 12.4478 63.3705C12.2887 63.3498 12.1612 63.3326 12.074 63.3206C12.0304 63.3146 11.9969 63.3099 11.9746 63.3068C11.9635 63.3053 11.9551 63.3041 11.9497 63.3033C11.947 63.3029 11.9451 63.3027 11.9439 63.3025C11.9432 63.3024 11.9428 63.3023 11.9426 63.3023C11.9425 63.3023 11.9424 63.3023 11.9424 63.3023C11.9424 63.3023 11.9424 63.3023 11.9424 63.3023C11.9424 63.3023 11.9425 63.3023 11.7304 64.7872C11.5182 66.2721 11.5183 66.2721 11.5184 66.2722C11.5184 66.2722 11.5185 66.2722 11.5186 66.2722C11.5188 66.2722 11.519 66.2722 11.5193 66.2723C11.5198 66.2724 11.5205 66.2725 11.5215 66.2726C11.5233 66.2729 11.5259 66.2732 11.5293 66.2737C11.536 66.2746 11.5456 66.276 11.5581 66.2778C11.5831 66.2813 11.6195 66.2863 11.6661 66.2927C11.7592 66.3055 11.8934 66.3236 12.0597 66.3453C12.3921 66.3887 12.8545 66.4465 13.3754 66.5044C14.398 66.618 15.7144 66.7399 16.7097 66.7399V63.7399ZM26.5132 60.5579C23.3823 63.6887 18.5764 63.7399 16.7097 63.7399V66.7399C18.4645 66.7399 24.5226 66.7911 28.6345 62.6792L26.5132 60.5579ZM26.8374 60.2007C26.7365 60.3233 26.6284 60.4426 26.5132 60.5579L28.6345 62.6792C28.8184 62.4953 28.9916 62.3042 29.1541 62.1068L26.8374 60.2007ZM57.4708 59.6537H27.9957V62.6537H57.4708V59.6537ZM56.8213 60.7787C56.5326 60.2787 56.8935 59.6537 57.4708 59.6537V62.6537C59.2029 62.6537 60.2854 60.7787 59.4194 59.2787L56.8213 60.7787ZM44.6877 39.7626L56.8213 60.7787L59.4194 59.2787L47.2858 38.2626L44.6877 39.7626ZM63.3839 18.7082L44.9042 37.9743L47.0692 40.051L65.549 20.7848L63.3839 18.7082ZM59.3318 16.7331L63.4058 20.8072L65.5271 18.6858L61.4531 14.6118L59.3318 16.7331ZM44.0236 33.4517L61.4308 16.755L59.3541 14.59L41.9469 31.2866L44.0236 33.4517ZM41.4853 30.6537V32.3691H44.4853V30.6537H41.4853ZM41.4853 14.1537V30.6537H44.4853V14.1537H41.4853ZM43.9853 12.6537H42.9853V15.6537H43.9853V12.6537ZM42.4853 11.9037V14.1537H45.4853V11.9037H42.4853ZM43.2353 12.6537C42.8211 12.6537 42.4853 12.3179 42.4853 11.9037H45.4853C45.4853 10.6611 44.4779 9.65372 43.2353 9.65372V12.6537ZM41.9853 12.6537H43.2353V9.65372H41.9853V12.6537ZM33.9853 12.6537H41.9853V9.65372H33.9853V12.6537ZM32.7353 12.6537H33.9853V9.65372H32.7353V12.6537ZM33.4853 11.9037C33.4853 12.3179 33.1495 12.6537 32.7353 12.6537V9.65372C31.4926 9.65372 30.4853 10.6611 30.4853 11.9037H33.4853ZM33.4853 14.1537V11.9037H30.4853V14.1537H33.4853ZM32.9853 12.6537H31.9853V15.6537H32.9853V12.6537Z" fill="#212C3C" mask="url(#path-2-outside-1)"/>
<path fill-rule="evenodd" clip-rule="evenodd" d="M28.1703 42.1537L17.8502 60.0287C17.5615 60.5287 17.9224 61.1537 18.4997 61.1537H57.4709C58.0482 61.1537 58.409 60.5287 58.1204 60.0287L47.8002 42.1537H28.1703Z" fill="#36CC84"/>
<path d="M60.3924 15.6725L64.4665 19.7465L32.5532 53.0178L27.1212 47.5857L60.3924 15.6725Z" fill="#4D81E7"/>
<path d="M27.1212 47.5857L32.5532 53.0178L27.5738 55.2811L24.8578 52.5651L27.1212 47.5857Z" fill="#F2F2F2"/>
<mask id="mask0" mask-type="alpha" maskUnits="userSpaceOnUse" x="9" y="48" width="24" height="24">
<path d="M27.5738 61.6185C23.9525 65.2399 18.5204 65.2399 16.7097 65.2399C14.8991 65.2399 11.7304 64.7872 11.7304 64.7872C14.8991 60.7132 14.9946 59.6167 15.8044 57.9971C16.6142 56.3776 16.5842 54.5013 18.5204 52.5651C21.0205 50.0651 25.0738 50.0651 27.5738 52.5651C30.0739 55.0651 30.0739 59.1185 27.5738 61.6185Z" fill="#F2F2F2"/>
</mask>
<g mask="url(#mask0)">
<path d="M27.5738 61.6185C23.9525 65.2399 18.5204 65.2399 16.7097 65.2399C14.8991 65.2399 11.7304 64.7872 11.7304 64.7872C14.8991 60.7132 14.9946 59.6167 15.8044 57.9971C16.6142 56.3776 16.5842 54.5013 18.5204 52.5651C21.0205 50.0651 25.0738 50.0651 27.5738 52.5651C30.0739 55.0651 30.0739 59.1185 27.5738 61.6185Z" fill="#F2F2F2"/>
<path d="M24.7888 61.02C27.6828 66.1064 17.2308 75.8357 14.2527 72.8576C11.2745 69.8795 3.863 63.4832 6.84113 60.505C9.81925 57.5269 12.6477 50.3314 14.7415 55.7751C16.8352 61.2188 21.8948 55.9336 24.7888 61.02Z" fill="#36CC84"/>
</g>
</svg>
