<svg width="75" height="75" viewBox="0 0 75 75" fill="none" xmlns="http://www.w3.org/2000/svg">
<mask id="path-1-outside-1" maskUnits="userSpaceOnUse" x="5.74509" y="8.15372" width="63" height="61" fill="black">
<rect fill="white" x="5.74509" y="8.15372" width="63" height="61"/>
<path fill-rule="evenodd" clip-rule="evenodd" d="M33 14.1537V30.6537V33.814L23.2549 50.693C21.5528 50.6419 19.8343 51.266 18.5351 52.5651C17.2208 53.8795 16.8125 55.1662 16.4324 56.3638C16.2526 56.9304 16.0792 57.477 15.8191 57.9972C15.6451 58.3453 15.504 58.6692 15.3583 59.0038C14.8263 60.2256 14.2327 61.5889 11.7451 64.7872C11.7451 64.7872 14.9138 65.2399 16.7245 65.2399C18.5351 65.2399 23.9672 65.2399 27.5886 61.6185C27.7382 61.4689 27.8788 61.3138 28.0105 61.1537H57.4856C58.0629 61.1537 58.4238 60.5287 58.1351 60.0287L46.0015 39.0126L64.4812 19.7465L60.4072 15.6725L43 32.3691V30.6537V14.1537H44V11.9037C44 11.4895 43.6642 11.1537 43.25 11.1537H42H34H32.75C32.3358 11.1537 32 11.4895 32 11.9037V14.1537H33Z"/>
</mask>
<path d="M33 14.1537H36V11.1537H33V14.1537ZM33 33.814L35.5981 35.314L36 34.6178V33.814H33ZM23.2549 50.693L23.165 53.6916L24.9567 53.7454L25.853 52.193L23.2549 50.693ZM18.5351 52.5651L20.6565 54.6864L20.6565 54.6864L18.5351 52.5651ZM16.4324 56.3638L19.2919 57.2712L19.2919 57.2712L16.4324 56.3638ZM15.8191 57.9972L13.1358 56.6555L13.1358 56.6555L15.8191 57.9972ZM15.3583 59.0038L12.6078 57.8061L12.6078 57.8061L15.3583 59.0038ZM11.7451 64.7872L9.37704 62.9454L6.20325 67.026L11.3208 67.7571L11.7451 64.7872ZM27.5886 61.6185L25.4672 59.4972L25.4672 59.4972L27.5886 61.6185ZM28.0105 61.1537V58.1537H26.5939L25.6939 59.2476L28.0105 61.1537ZM58.1351 60.0287L60.7332 58.5287L60.7332 58.5287L58.1351 60.0287ZM46.0015 39.0126L43.8364 36.936L42.277 38.5617L43.4034 40.5126L46.0015 39.0126ZM64.4812 19.7465L66.6462 21.8232L68.6801 19.7028L66.6025 17.6252L64.4812 19.7465ZM60.4072 15.6725L62.5285 13.5512L60.4509 11.4736L58.3305 13.5074L60.4072 15.6725ZM43 32.3691H40V39.4037L45.0767 34.5342L43 32.3691ZM43 14.1537V11.1537H40V14.1537H43ZM44 14.1537V17.1537H47V14.1537H44ZM32 14.1537H29V17.1537H32V14.1537ZM36 30.6537V14.1537H30V30.6537H36ZM36 33.814V30.6537H30V33.814H36ZM25.853 52.193L35.5981 35.314L30.4019 32.314L20.6568 49.193L25.853 52.193ZM20.6565 54.6864C21.347 53.9959 22.2549 53.6643 23.165 53.6916L23.3448 47.6943C20.8508 47.6195 18.3216 48.536 16.4138 50.4438L20.6565 54.6864ZM19.2919 57.2712C19.6553 56.126 19.8909 55.452 20.6565 54.6864L16.4138 50.4438C14.5507 52.3069 13.9696 54.2065 13.573 55.4564L19.2919 57.2712ZM18.5024 59.3388C18.8851 58.5735 19.1241 57.8001 19.2919 57.2712L13.573 55.4564C13.3812 56.0607 13.2733 56.3806 13.1358 56.6555L18.5024 59.3388ZM18.1089 60.2015C18.2578 59.8595 18.369 59.6056 18.5024 59.3388L13.1358 56.6555C12.9211 57.0849 12.7502 57.479 12.6078 57.8061L18.1089 60.2015ZM14.1132 66.629C16.764 63.2208 17.483 61.6388 18.1089 60.2015L12.6078 57.8061C12.1696 58.8125 11.7014 59.957 9.37704 62.9454L14.1132 66.629ZM16.7245 62.2399C15.9991 62.2399 14.8975 62.1442 13.8871 62.0319C13.4011 61.9779 12.9679 61.9238 12.6565 61.8831C12.5012 61.8629 12.377 61.8461 12.2927 61.8345C12.2506 61.8287 12.2186 61.8243 12.1976 61.8213C12.1871 61.8199 12.1795 61.8188 12.1747 61.8181C12.1723 61.8178 12.1707 61.8175 12.1698 61.8174C12.1693 61.8174 12.1691 61.8173 12.169 61.8173C12.169 61.8173 12.169 61.8173 12.169 61.8173C12.1691 61.8173 12.1691 61.8173 12.1692 61.8173C12.1693 61.8173 12.1694 61.8174 11.7451 64.7872C11.3208 67.7571 11.321 67.7571 11.3211 67.7571C11.3212 67.7571 11.3213 67.7571 11.3214 67.7571C11.3217 67.7572 11.322 67.7572 11.3223 67.7573C11.323 67.7574 11.3239 67.7575 11.325 67.7577C11.3272 67.758 11.3301 67.7584 11.3338 67.7589C11.3411 67.7599 11.3515 67.7614 11.3646 67.7632C11.391 67.7669 11.4288 67.7722 11.4768 67.7788C11.573 67.792 11.7105 67.8106 11.8805 67.8327C12.2198 67.877 12.6919 67.936 13.2245 67.9952C14.2511 68.1093 15.6392 68.2399 16.7245 68.2399V62.2399ZM25.4672 59.4972C22.8269 62.1375 18.6471 62.2399 16.7245 62.2399V68.2399C18.4232 68.2399 25.1074 68.3423 29.7099 63.7398L25.4672 59.4972ZM25.6939 59.2476C25.6237 59.3329 25.5482 59.4163 25.4672 59.4972L29.7099 63.7398C29.9281 63.5216 30.1339 63.2946 30.3271 63.0599L25.6939 59.2476ZM57.4856 58.1537H28.0105V64.1537H57.4856V58.1537ZM55.537 61.5287C54.671 60.0287 55.7535 58.1537 57.4856 58.1537V64.1537C60.3723 64.1537 62.1765 61.0287 60.7332 58.5287L55.537 61.5287ZM43.4034 40.5126L55.537 61.5287L60.7332 58.5287L48.5995 37.5126L43.4034 40.5126ZM62.3162 17.6698L43.8364 36.936L48.1665 41.0893L66.6462 21.8232L62.3162 17.6698ZM58.2858 17.7938L62.3599 21.8678L66.6025 17.6252L62.5285 13.5512L58.2858 17.7938ZM45.0767 34.5342L62.4838 17.8375L58.3305 13.5074L40.9233 30.2041L45.0767 34.5342ZM40 30.6537V32.3691H46V30.6537H40ZM40 14.1537V30.6537H46V14.1537H40ZM44 11.1537H43V17.1537H44V11.1537ZM41 11.9037V14.1537H47V11.9037H41ZM43.25 14.1537C42.0074 14.1537 41 13.1464 41 11.9037H47C47 9.83265 45.3211 8.15372 43.25 8.15372V14.1537ZM42 14.1537H43.25V8.15372H42V14.1537ZM34 14.1537H42V8.15372H34V14.1537ZM32.75 14.1537H34V8.15372H32.75V14.1537ZM35 11.9037C35 13.1464 33.9926 14.1537 32.75 14.1537V8.15372C30.6789 8.15372 29 9.83265 29 11.9037H35ZM35 14.1537V11.9037H29V14.1537H35ZM33 11.1537H32V17.1537H33V11.1537Z" fill="#F2F2F2" mask="url(#path-1-outside-1)"/>
<path fill-rule="evenodd" clip-rule="evenodd" d="M28.1851 42.1537L17.8649 60.0287C17.5763 60.5287 17.9371 61.1537 18.5144 61.1537H57.4856C58.0629 61.1537 58.4238 60.5287 58.1351 60.0287L47.815 42.1537H28.1851Z" fill="#36CC84"/>
<path d="M60.4072 15.6725L64.4812 19.7465L32.5679 53.0178L27.1359 47.5858L60.4072 15.6725Z" fill="#4D81E7"/>
<path d="M27.1359 47.5858L32.5679 53.0178L27.5886 55.2812L24.8725 52.5651L27.1359 47.5858Z" fill="#F2F2F2"/>
<mask id="mask0" mask-type="alpha" maskUnits="userSpaceOnUse" x="9" y="48" width="24" height="24">
<path d="M27.5886 61.6185C23.9672 65.2399 18.5352 65.2399 16.7245 65.2399C14.9138 65.2399 11.7451 64.7872 11.7451 64.7872C14.9138 60.7132 15.0094 59.6167 15.8191 57.9972C16.6289 56.3776 16.599 54.5013 18.5352 52.5651C21.0352 50.0651 25.0885 50.0651 27.5886 52.5651C30.0886 55.0651 30.0886 59.1185 27.5886 61.6185Z" fill="#F2F2F2"/>
</mask>
<g mask="url(#mask0)">
<path d="M27.5886 61.6185C23.9672 65.2399 18.5352 65.2399 16.7245 65.2399C14.9138 65.2399 11.7451 64.7872 11.7451 64.7872C14.9138 60.7132 15.0094 59.6167 15.8191 57.9972C16.6289 56.3776 16.599 54.5013 18.5352 52.5651C21.0352 50.0651 25.0885 50.0651 27.5886 52.5651C30.0886 55.0651 30.0886 59.1185 27.5886 61.6185Z" fill="#F2F2F2"/>
<path d="M24.8036 61.02C27.6976 66.1064 17.2455 75.8358 14.2674 72.8576C11.2893 69.8795 3.87773 63.4832 6.85585 60.5051C9.83398 57.5269 12.6624 50.3314 14.7562 55.7751C16.85 61.2189 21.9096 55.9336 24.8036 61.02Z" fill="#36CC84"/>
</g>
</svg>
