<svg width="75" height="75" viewBox="0 0 75 75" fill="none" xmlns="http://www.w3.org/2000/svg">
<mask id="path-1-outside-1" maskUnits="userSpaceOnUse" x="8.74509" y="9.15372" width="58" height="58" fill="black">
<rect fill="white" x="8.74509" y="9.15372" width="58" height="58"/>
<path fill-rule="evenodd" clip-rule="evenodd" d="M33 14.1537V30.6537V33.814L23.2549 50.693C21.5528 50.6419 19.8343 51.266 18.5351 52.5651C17.2208 53.8795 16.8125 55.1662 16.4324 56.3638C16.2526 56.9304 16.0792 57.477 15.8191 57.9972C15.6451 58.3453 15.504 58.6692 15.3583 59.0038C14.8263 60.2256 14.2327 61.5889 11.7451 64.7872C11.7451 64.7872 14.9138 65.2399 16.7245 65.2399C18.5351 65.2399 23.9672 65.2399 27.5886 61.6185C27.7382 61.4689 27.8788 61.3138 28.0105 61.1537H57.4856C58.0629 61.1537 58.4238 60.5287 58.1351 60.0287L46.0015 39.0126L64.4812 19.7465L60.4072 15.6725L43 32.3691V30.6537V14.1537H44V11.9037C44 11.4895 43.6642 11.1537 43.25 11.1537H42H34H32.75C32.3358 11.1537 32 11.4895 32 11.9037V14.1537H33Z"/>
</mask>
<path d="M33 14.1537H34.5V12.6537H33V14.1537ZM33 33.814L34.2991 34.564L34.5 34.2159V33.814H33ZM23.2549 50.693L23.21 52.1923L24.1058 52.2192L24.554 51.443L23.2549 50.693ZM18.5351 52.5651L19.5958 53.6258L19.5958 53.6258L18.5351 52.5651ZM16.4324 56.3638L17.8622 56.8175L17.8622 56.8175L16.4324 56.3638ZM15.8191 57.9972L14.4775 57.3263L14.4775 57.3263L15.8191 57.9972ZM15.3583 59.0038L13.9831 58.4049L13.9831 58.4049L15.3583 59.0038ZM11.7451 64.7872L10.5611 63.8663L8.97417 65.9066L11.533 66.2721L11.7451 64.7872ZM27.5886 61.6185L26.5279 60.5579L26.5279 60.5579L27.5886 61.6185ZM28.0105 61.1537V59.6537H27.3022L26.8522 60.2006L28.0105 61.1537ZM58.1351 60.0287L59.4341 59.2787L59.4341 59.2787L58.1351 60.0287ZM46.0015 39.0126L44.9189 37.9743L44.1392 38.7872L44.7024 39.7626L46.0015 39.0126ZM64.4812 19.7465L65.5637 20.7848L66.5807 19.7246L65.5419 18.6858L64.4812 19.7465ZM60.4072 15.6725L61.4678 14.6118L60.429 13.573L59.3688 14.59L60.4072 15.6725ZM43 32.3691H41.5V35.8864L44.0384 33.4517L43 32.3691ZM43 14.1537V12.6537H41.5V14.1537H43ZM44 14.1537V15.6537H45.5V14.1537H44ZM32 14.1537H30.5V15.6537H32V14.1537ZM34.5 30.6537V14.1537H31.5V30.6537H34.5ZM34.5 33.814V30.6537H31.5V33.814H34.5ZM24.554 51.443L34.2991 34.564L31.701 33.064L21.9559 49.943L24.554 51.443ZM19.5958 53.6258C20.5906 52.631 21.9039 52.1531 23.21 52.1923L23.2999 49.1937C21.2018 49.1307 19.0779 49.901 17.4745 51.5044L19.5958 53.6258ZM17.8622 56.8175C18.2339 55.6461 18.5558 54.6657 19.5958 53.6258L17.4745 51.5044C15.8858 53.0932 15.391 54.6864 15.0027 55.9101L17.8622 56.8175ZM17.1608 58.668C17.4821 58.0252 17.6884 57.3653 17.8622 56.8175L15.0027 55.9101C14.8169 56.4956 14.6762 56.9288 14.4775 57.3263L17.1608 58.668ZM16.7336 59.6026C16.8809 59.2644 17.007 58.9754 17.1608 58.668L14.4775 57.3263C14.2831 57.7151 14.1271 58.0741 13.9831 58.4049L16.7336 59.6026ZM12.9291 65.7081C15.4983 62.4048 16.1547 60.9322 16.7336 59.6026L13.9831 58.4049C13.4979 59.5191 12.967 60.7729 10.5611 63.8663L12.9291 65.7081ZM16.7245 63.7399C15.9091 63.7399 14.7359 63.6354 13.7214 63.5227C13.2238 63.4674 12.7809 63.4121 12.4625 63.3705C12.3035 63.3498 12.176 63.3326 12.0888 63.3206C12.0452 63.3146 12.0117 63.3099 11.9894 63.3068C11.9782 63.3053 11.9699 63.3041 11.9645 63.3033C11.9618 63.3029 11.9598 63.3027 11.9586 63.3025C11.958 63.3024 11.9576 63.3023 11.9573 63.3023C11.9572 63.3023 11.9572 63.3023 11.9571 63.3023C11.9571 63.3023 11.9572 63.3023 11.9571 63.3023C11.9572 63.3023 11.9572 63.3023 11.7451 64.7872C11.533 66.2721 11.533 66.2721 11.5331 66.2722C11.5332 66.2722 11.5333 66.2722 11.5333 66.2722C11.5335 66.2722 11.5337 66.2722 11.534 66.2723C11.5345 66.2724 11.5353 66.2725 11.5362 66.2726C11.5381 66.2729 11.5407 66.2732 11.544 66.2737C11.5507 66.2746 11.5604 66.276 11.5729 66.2778C11.5979 66.2813 11.6342 66.2863 11.6808 66.2927C11.774 66.3055 11.9081 66.3236 12.0745 66.3453C12.4068 66.3887 12.8692 66.4465 13.3901 66.5044C14.4127 66.618 15.7292 66.7399 16.7245 66.7399V63.7399ZM26.5279 60.5579C23.3971 63.6887 18.5911 63.7399 16.7245 63.7399V66.7399C18.4792 66.7399 24.5373 66.7911 28.6492 62.6792L26.5279 60.5579ZM26.8522 60.2006C26.7512 60.3233 26.6432 60.4426 26.5279 60.5579L28.6492 62.6792C28.8331 62.4953 29.0064 62.3042 29.1688 62.1068L26.8522 60.2006ZM57.4856 59.6537H28.0105V62.6537H57.4856V59.6537ZM56.8361 60.7787C56.5474 60.2787 56.9082 59.6537 57.4856 59.6537V62.6537C59.2176 62.6537 60.3002 60.7787 59.4341 59.2787L56.8361 60.7787ZM44.7024 39.7626L56.8361 60.7787L59.4341 59.2787L47.3005 38.2626L44.7024 39.7626ZM63.3987 18.7082L44.9189 37.9743L47.084 40.051L65.5637 20.7848L63.3987 18.7082ZM59.3465 16.7331L63.4205 20.8072L65.5419 18.6858L61.4678 14.6118L59.3465 16.7331ZM44.0384 33.4517L61.4455 16.755L59.3688 14.59L41.9617 31.2866L44.0384 33.4517ZM41.5 30.6537V32.3691H44.5V30.6537H41.5ZM41.5 14.1537V30.6537H44.5V14.1537H41.5ZM44 12.6537H43V15.6537H44V12.6537ZM42.5 11.9037V14.1537H45.5V11.9037H42.5ZM43.25 12.6537C42.8358 12.6537 42.5 12.3179 42.5 11.9037H45.5C45.5 10.6611 44.4927 9.65372 43.25 9.65372V12.6537ZM42 12.6537H43.25V9.65372H42V12.6537ZM34 12.6537H42V9.65372H34V12.6537ZM32.75 12.6537H34V9.65372H32.75V12.6537ZM33.5 11.9037C33.5 12.3179 33.1642 12.6537 32.75 12.6537V9.65372C31.5074 9.65372 30.5 10.6611 30.5 11.9037H33.5ZM33.5 14.1537V11.9037H30.5V14.1537H33.5ZM33 12.6537H32V15.6537H33V12.6537Z" fill="#F2F2F2" mask="url(#path-1-outside-1)"/>
<path fill-rule="evenodd" clip-rule="evenodd" d="M28.1851 42.1537L17.8649 60.0287C17.5763 60.5287 17.9371 61.1537 18.5144 61.1537H57.4856C58.0629 61.1537 58.4238 60.5287 58.1351 60.0287L47.815 42.1537H28.1851Z" fill="#36CC84"/>
<path d="M60.4072 15.6725L64.4812 19.7465L32.5679 53.0178L27.1359 47.5858L60.4072 15.6725Z" fill="#4D81E7"/>
<path d="M27.1359 47.5858L32.5679 53.0178L27.5886 55.2812L24.8725 52.5651L27.1359 47.5858Z" fill="#F2F2F2"/>
<mask id="mask0" mask-type="alpha" maskUnits="userSpaceOnUse" x="9" y="48" width="24" height="24">
<path d="M27.5886 61.6185C23.9672 65.2399 18.5352 65.2399 16.7245 65.2399C14.9138 65.2399 11.7451 64.7872 11.7451 64.7872C14.9138 60.7132 15.0094 59.6167 15.8191 57.9972C16.6289 56.3776 16.599 54.5013 18.5352 52.5651C21.0352 50.0651 25.0885 50.0651 27.5886 52.5651C30.0886 55.0651 30.0886 59.1185 27.5886 61.6185Z" fill="#F2F2F2"/>
</mask>
<g mask="url(#mask0)">
<path d="M27.5886 61.6185C23.9672 65.2399 18.5352 65.2399 16.7245 65.2399C14.9138 65.2399 11.7451 64.7872 11.7451 64.7872C14.9138 60.7132 15.0094 59.6167 15.8191 57.9972C16.6289 56.3776 16.599 54.5013 18.5352 52.5651C21.0352 50.0651 25.0885 50.0651 27.5886 52.5651C30.0886 55.0651 30.0886 59.1185 27.5886 61.6185Z" fill="#F2F2F2"/>
<path d="M24.8036 61.02C27.6976 66.1064 17.2455 75.8358 14.2674 72.8576C11.2893 69.8795 3.87773 63.4832 6.85585 60.5051C9.83398 57.5269 12.6624 50.3314 14.7562 55.7751C16.85 61.2189 21.9096 55.9336 24.8036 61.02Z" fill="#36CC84"/>
</g>
</svg>
