<svg width="75" height="75" viewBox="0 0 75 75" fill="none" xmlns="http://www.w3.org/2000/svg">
<mask id="path-1-outside-1" maskUnits="userSpaceOnUse" x="0.188507" y="5.15372" width="73" height="67" fill="black">
<rect fill="white" x="0.188507" y="5.15372" width="73" height="67"/>
<path fill-rule="evenodd" clip-rule="evenodd" d="M6.18851 67.026L9.3623 62.9454C11.6223 60.0397 12.1275 58.8773 12.5565 57.8901C12.5687 57.8619 12.5809 57.834 12.593 57.8061L12.6028 57.7837C12.7433 57.4611 12.9113 57.0752 13.1211 56.6555C13.2586 56.3806 13.3665 56.0607 13.5582 55.4564L13.5778 55.3946C13.9742 54.1444 14.5664 52.2765 16.3991 50.4438C17.8211 49.0218 19.5884 48.1505 21.429 47.83L29.9853 33.0101V17.1537H28.9853V11.9037C28.9853 9.83265 30.6642 8.15372 32.7353 8.15372H43.2353C45.3063 8.15372 46.9853 9.83266 46.9853 11.9037V17.1537H45.9853V25.3346L60.4362 11.4736L68.6654 19.7028L49.7112 39.4636L60.7184 58.5287C62.1618 61.0287 60.3576 64.1537 57.4708 64.1537H29.2621C24.779 68.2491 18.6182 68.242 16.8184 68.24C16.7802 68.2399 16.7439 68.2399 16.7097 68.2399C15.6244 68.2399 14.2364 68.1093 13.2097 67.9952C12.6772 67.936 12.205 67.877 11.8657 67.8327C11.6957 67.8106 11.5582 67.792 11.4621 67.7788L11.3499 67.7632L11.319 67.7589L11.3076 67.7573L11.3064 67.7571C11.3062 67.7571 11.3061 67.7571 11.7304 64.7872C11.7304 64.7872 13.534 65.0449 15.1973 65.1714C15.7387 65.2126 16.2651 65.2399 16.7097 65.2399C18.5204 65.2399 23.9525 65.2399 27.5738 61.6185C27.7234 61.4689 27.8641 61.3138 27.9957 61.1537H57.4708C58.0482 61.1537 58.409 60.5287 58.1204 60.0287L45.9867 39.0126L64.4665 19.7465L60.3924 15.6725L42.9853 32.3691V14.1537H43.9853V11.9037C43.9853 11.4895 43.6495 11.1537 43.2353 11.1537H32.7353C32.3211 11.1537 31.9853 11.4895 31.9853 11.9037V14.1537H32.9853V33.814L23.2402 50.693C21.5381 50.6419 19.8195 51.266 18.5204 52.5651C17.2061 53.8795 16.7977 55.1662 16.4177 56.3638C16.2379 56.9304 16.0645 57.477 15.8044 57.9972C15.6303 58.3453 15.4893 58.6692 15.3436 59.0038C14.999 59.7952 14.6285 60.646 13.7342 62.0164C13.2479 62.7616 12.6066 63.6606 11.7304 64.7872L11.3064 67.7571L6.18851 67.026Z"/>
</mask>
<path fill-rule="evenodd" clip-rule="evenodd" d="M6.18851 67.026L9.3623 62.9454C11.6223 60.0397 12.1275 58.8773 12.5565 57.8901C12.5687 57.8619 12.5809 57.834 12.593 57.8061L12.6028 57.7837C12.7433 57.4611 12.9113 57.0752 13.1211 56.6555C13.2586 56.3806 13.3665 56.0607 13.5582 55.4564L13.5778 55.3946C13.9742 54.1444 14.5664 52.2765 16.3991 50.4438C17.8211 49.0218 19.5884 48.1505 21.429 47.83L29.9853 33.0101V17.1537H28.9853V11.9037C28.9853 9.83265 30.6642 8.15372 32.7353 8.15372H43.2353C45.3063 8.15372 46.9853 9.83266 46.9853 11.9037V17.1537H45.9853V25.3346L60.4362 11.4736L68.6654 19.7028L49.7112 39.4636L60.7184 58.5287C62.1618 61.0287 60.3576 64.1537 57.4708 64.1537H29.2621C24.779 68.2491 18.6182 68.242 16.8184 68.24C16.7802 68.2399 16.7439 68.2399 16.7097 68.2399C15.6244 68.2399 14.2364 68.1093 13.2097 67.9952C12.6772 67.936 12.205 67.877 11.8657 67.8327C11.6957 67.8106 11.5582 67.792 11.4621 67.7788L11.3499 67.7632L11.319 67.7589L11.3076 67.7573L11.3064 67.7571C11.3062 67.7571 11.3061 67.7571 11.7304 64.7872C11.7304 64.7872 13.534 65.0449 15.1973 65.1714C15.7387 65.2126 16.2651 65.2399 16.7097 65.2399C18.5204 65.2399 23.9525 65.2399 27.5738 61.6185C27.7234 61.4689 27.8641 61.3138 27.9957 61.1537H57.4708C58.0482 61.1537 58.409 60.5287 58.1204 60.0287L45.9867 39.0126L64.4665 19.7465L60.3924 15.6725L42.9853 32.3691V14.1537H43.9853V11.9037C43.9853 11.4895 43.6495 11.1537 43.2353 11.1537H32.7353C32.3211 11.1537 31.9853 11.4895 31.9853 11.9037V14.1537H32.9853V33.814L23.2402 50.693C21.5381 50.6419 19.8195 51.266 18.5204 52.5651C17.2061 53.8795 16.7977 55.1662 16.4177 56.3638C16.2379 56.9304 16.0645 57.477 15.8044 57.9972C15.6303 58.3453 15.4893 58.6692 15.3436 59.0038C14.999 59.7952 14.6285 60.646 13.7342 62.0164C13.2479 62.7616 12.6066 63.6606 11.7304 64.7872L11.3064 67.7571L6.18851 67.026Z" fill="#212C3C"/>
<path d="M9.3623 62.9454L11.7304 64.7872L11.7304 64.7872L9.3623 62.9454ZM6.18851 67.026L3.82045 65.1842L0.646657 69.2647L5.76425 69.9958L6.18851 67.026ZM12.5565 57.8901L15.3079 59.0858L15.3079 59.0858L12.5565 57.8901ZM12.593 57.8061L15.3436 59.0037L15.3437 59.0035L12.593 57.8061ZM12.6028 57.7837L9.85217 56.5861L9.8521 56.5863L12.6028 57.7837ZM13.1211 56.6555L15.8044 57.9971L15.8044 57.9971L13.1211 56.6555ZM13.5582 55.4564L16.4177 56.3638L16.4179 56.3633L13.5582 55.4564ZM13.5778 55.3946L16.4375 56.3015L16.4375 56.3013L13.5778 55.3946ZM16.3991 50.4438L18.5204 52.5651L18.5204 52.5651L16.3991 50.4438ZM21.429 47.83L21.9437 50.7855L23.3257 50.5449L24.0271 49.33L21.429 47.83ZM29.9853 33.0101L32.5834 34.5101L32.9853 33.814V33.0101H29.9853ZM29.9853 17.1537H32.9853V14.1537H29.9853V17.1537ZM28.9853 17.1537H25.9853V20.1537H28.9853V17.1537ZM46.9853 17.1537V20.1537H49.9853V17.1537H46.9853ZM45.9853 17.1537V14.1537H42.9853V17.1537H45.9853ZM45.9853 25.3346H42.9853V32.3691L48.062 27.4997L45.9853 25.3346ZM60.4362 11.4736L62.5575 9.35224L60.4799 7.27466L58.3595 9.30852L60.4362 11.4736ZM68.6654 19.7028L70.8304 21.7794L72.8643 19.659L70.7867 17.5815L68.6654 19.7028ZM49.7112 39.4636L47.5461 37.3869L45.9867 39.0126L47.1131 40.9636L49.7112 39.4636ZM60.7184 58.5287L63.3165 57.0287L63.3165 57.0287L60.7184 58.5287ZM29.2621 64.1537V61.1537H28.0981L27.2387 61.9388L29.2621 64.1537ZM16.8184 68.24L16.8148 71.24L16.8149 71.24L16.8184 68.24ZM13.2097 67.9952L12.8784 70.9768L12.8785 70.9768L13.2097 67.9952ZM11.8657 67.8327L11.4777 70.8075L11.4778 70.8075L11.8657 67.8327ZM11.4621 67.7788L11.0502 70.7504L11.0542 70.7509L11.4621 67.7788ZM11.3499 67.7632L10.9316 70.7339L10.938 70.7348L11.3499 67.7632ZM11.319 67.7589L10.8978 70.7292L10.9008 70.7296L11.319 67.7589ZM11.3076 67.7573L10.8794 70.7266L10.8864 70.7276L11.3076 67.7573ZM11.7304 64.7872L9.3623 62.9454L8.87318 63.5743L8.76051 64.3629L11.7304 64.7872ZM15.1973 65.1714L14.9698 68.1628L14.9698 68.1628L15.1973 65.1714ZM16.7097 65.2399L16.7097 62.2399H16.7097V65.2399ZM27.5738 61.6185L25.4525 59.4972L25.4525 59.4972L27.5738 61.6185ZM27.9957 61.1537V58.1537H26.5792L25.6791 59.2476L27.9957 61.1537ZM58.1204 60.0287L60.7184 58.5287L60.7184 58.5287L58.1204 60.0287ZM45.9867 39.0126L43.8217 36.936L42.2623 38.5617L43.3886 40.5126L45.9867 39.0126ZM64.4665 19.7465L66.6315 21.8232L68.6654 19.7028L66.5878 17.6252L64.4665 19.7465ZM60.3924 15.6725L62.5137 13.5512L60.4362 11.4736L58.3158 13.5074L60.3924 15.6725ZM42.9853 32.3691H39.9853V39.4036L45.062 34.5342L42.9853 32.3691ZM42.9853 14.1537V11.1537H39.9853V14.1537H42.9853ZM43.9853 14.1537V17.1537H46.9853V14.1537H43.9853ZM31.9853 14.1537H28.9853V17.1537H31.9853V14.1537ZM32.9853 14.1537H35.9853V11.1537H32.9853V14.1537ZM32.9853 33.814L35.5834 35.314L35.9853 34.6178V33.814H32.9853ZM23.2402 50.693L23.1503 53.6916L24.942 53.7454L25.8383 52.193L23.2402 50.693ZM18.5204 52.5651L20.6417 54.6864L20.6417 54.6864L18.5204 52.5651ZM16.4177 56.3638L13.5582 55.4564L13.5582 55.4564L16.4177 56.3638ZM15.8044 57.9972L13.1211 56.6555L13.1211 56.6555L15.8044 57.9972ZM15.3436 59.0038L18.0941 60.2015L18.0941 60.2015L15.3436 59.0038ZM13.7342 62.0164L16.2466 63.6559L16.2466 63.6559L13.7342 62.0164ZM6.99424 61.1036L3.82045 65.1842L8.55656 68.8678L11.7304 64.7872L6.99424 61.1036ZM9.80514 56.6943C9.47821 57.4465 9.10285 58.3925 6.99424 61.1036L11.7304 64.7872C14.1417 61.687 14.7767 60.3081 15.3079 59.0858L9.80514 56.6943ZM9.84246 56.6085C9.82986 56.6374 9.81731 56.6663 9.80512 56.6943L15.3079 59.0858C15.3202 59.0576 15.332 59.0305 15.3436 59.0037L9.84246 56.6085ZM9.8521 56.5863L9.84237 56.6087L15.3437 59.0035L15.3534 58.9812L9.8521 56.5863ZM10.4378 55.3139C10.1881 55.8133 9.99136 56.2665 9.85217 56.5861L15.3534 58.9813C15.4951 58.6557 15.6344 58.3371 15.8044 57.9971L10.4378 55.3139ZM10.6987 54.5491C10.6022 54.8533 10.5426 55.0353 10.4956 55.1663C10.4738 55.2269 10.4592 55.2641 10.45 55.2862C10.4455 55.297 10.4424 55.3039 10.4406 55.3079C10.4389 55.3118 10.438 55.3136 10.4378 55.3139L15.8044 57.9971C16.0661 57.4738 16.2413 56.9196 16.4177 56.3638L10.6987 54.5491ZM10.7182 54.4877L10.6986 54.5495L16.4179 56.3633L16.4375 56.3015L10.7182 54.4877ZM14.2778 48.3225C11.9067 50.6935 11.1406 53.1555 10.7181 54.488L16.4375 56.3013C16.8078 55.1333 17.2261 53.8594 18.5204 52.5651L14.2778 48.3225ZM20.9144 44.8745C18.4864 45.2972 16.1518 46.4485 14.2778 48.3225L18.5204 52.5651C19.4905 51.5951 20.6903 51.0038 21.9437 50.7855L20.9144 44.8745ZM27.3872 31.5101L18.8309 46.33L24.0271 49.33L32.5834 34.5101L27.3872 31.5101ZM28.9853 20.1537H29.9853V14.1537H28.9853V20.1537ZM32.7353 5.15372C29.0074 5.15372 25.9853 8.17579 25.9853 11.9037H31.9853C31.9853 11.4895 32.3211 11.1537 32.7353 11.1537V5.15372ZM49.9853 11.9037C49.9853 8.17582 46.9632 5.15372 43.2353 5.15372V11.1537C43.6495 11.1537 43.9853 11.4895 43.9853 11.9037H49.9853ZM45.9853 20.1537H46.9853V14.1537H45.9853V20.1537ZM48.9853 25.3346V17.1537H42.9853V25.3346H48.9853ZM63.3165 57.0287L52.3092 37.9636L47.1131 40.9636L58.1204 60.0287L63.3165 57.0287ZM57.4708 67.1537C62.667 67.1537 65.9146 61.5287 63.3165 57.0287L58.1204 60.0287C58.409 60.5287 58.0482 61.1537 57.4708 61.1537V67.1537ZM29.2621 67.1537H57.4708V61.1537H29.2621V67.1537ZM16.8149 71.24C18.5776 71.242 25.8596 71.3252 31.2855 66.3687L27.2387 61.9388C23.6983 65.173 18.6588 65.2421 16.8218 65.24L16.8149 71.24ZM16.7097 71.2399C16.7419 71.2399 16.7763 71.2399 16.8148 71.24L16.822 65.24C16.7841 65.2399 16.746 65.2399 16.7097 65.2399V71.2399ZM12.8785 70.9768C13.914 71.0919 15.4448 71.2399 16.7097 71.2399V65.2399C15.804 65.2399 14.5588 65.1266 13.541 65.0135L12.8785 70.9768ZM11.4778 70.8075C11.831 70.8536 12.3226 70.9151 12.8784 70.9768L13.541 65.0135C13.0318 64.957 12.5791 64.9004 12.2537 64.8579L11.4778 70.8075ZM11.0542 70.7509C11.1562 70.7649 11.3004 70.7844 11.4777 70.8075L12.2538 64.8579C12.0911 64.8367 11.9602 64.819 11.87 64.8067L11.0542 70.7509ZM10.938 70.7348L11.0502 70.7504L11.874 64.8072L11.7618 64.7916L10.938 70.7348ZM10.9008 70.7296L10.9316 70.7339L11.7682 64.7925L11.7373 64.7882L10.9008 70.7296ZM10.8781 70.7264L10.8794 70.7266L11.7359 64.788L11.7346 64.7878L10.8781 70.7264ZM8.76051 64.3629C8.54838 65.8478 8.44232 66.5905 8.3893 66.962C8.36283 67.1475 8.34948 67.2411 8.34275 67.2884C8.33952 67.3112 8.33741 67.3261 8.33607 67.3357C8.33591 67.3368 8.33386 67.3513 8.33175 67.3675C8.33108 67.3726 8.32975 67.3829 8.32819 67.3958C8.32714 67.4044 8.32335 67.4357 8.31957 67.4758C8.31771 67.4955 8.31406 67.5361 8.31115 67.5876C8.30915 67.6228 8.30224 67.7459 8.30993 67.9033C8.31032 67.9113 8.31268 68.5633 8.70017 69.2429C8.96702 69.711 9.39697 70.1674 10.005 70.4601C10.2154 70.5517 10.5474 70.6595 10.6638 70.6875C10.7826 70.711 10.9022 70.7298 10.9023 70.7298L11.7105 64.7844C11.7105 64.7844 11.8302 64.8032 11.949 64.8267C12.0653 64.8547 12.3973 64.9625 12.6078 65.0541C13.2157 65.3468 13.6457 65.8032 13.9126 66.2712C14.1394 66.669 14.2207 67.0251 14.2528 67.1929C14.2886 67.3797 14.2989 67.5309 14.3028 67.6108C14.3105 67.7682 14.3036 67.8913 14.3016 67.9265C14.2987 67.978 14.295 68.0185 14.2932 68.0382C14.2894 68.0782 14.2856 68.1094 14.2846 68.1178C14.283 68.1305 14.2818 68.1405 14.2811 68.1452C14.2799 68.1548 14.2789 68.162 14.2787 68.1633C14.2785 68.1646 14.2784 68.1656 14.2783 68.1661C14.2783 68.1663 14.2783 68.1666 14.2782 68.1667C14.2782 68.1668 14.2782 68.1669 14.2782 68.1669C14.2782 68.1669 14.2782 68.1667 14.2783 68.1663C14.2784 68.1659 14.2784 68.1653 14.2785 68.1645C14.2788 68.163 14.2791 68.1609 14.2795 68.158C14.2803 68.1523 14.2814 68.1442 14.283 68.1329C14.2895 68.0874 14.3026 67.9954 14.3291 67.8097C14.3821 67.4387 14.4881 66.6964 14.7002 65.2115L8.76051 64.3629ZM11.7304 64.7872C11.3061 67.7571 11.3062 67.7571 11.3063 67.7571C11.3063 67.7571 11.3064 67.7571 11.3065 67.7571C11.3067 67.7571 11.3069 67.7572 11.3071 67.7572C11.3076 67.7573 11.3082 67.7574 11.3088 67.7574C11.3102 67.7576 11.312 67.7579 11.3142 67.7582C11.3186 67.7588 11.3248 67.7597 11.3326 67.7608C11.3482 67.763 11.3704 67.7661 11.3989 67.7701C11.4557 67.778 11.5373 67.7892 11.6398 67.8029C11.8447 67.8303 12.1342 67.8681 12.4774 67.9099C13.1583 67.9928 14.0747 68.0947 14.9698 68.1628L15.4249 62.18C14.6566 62.1216 13.8395 62.0314 13.2028 61.9539C12.8872 61.9154 12.6218 61.8808 12.4365 61.856C12.3439 61.8436 12.2716 61.8337 12.2233 61.827C12.1992 61.8236 12.1811 61.8211 12.1695 61.8195C12.1637 61.8186 12.1595 61.8181 12.157 61.8177C12.1557 61.8175 12.1549 61.8174 12.1545 61.8173C12.1543 61.8173 12.1542 61.8173 12.1542 61.8173C12.1542 61.8173 12.1543 61.8173 12.1543 61.8173C12.1544 61.8173 12.1544 61.8173 12.1545 61.8173C12.1545 61.8173 12.1546 61.8174 11.7304 64.7872ZM14.9698 68.1628C15.5468 68.2067 16.1575 68.2399 16.7097 68.2399V62.2399C16.3727 62.2399 15.9306 62.2185 15.4249 62.18L14.9698 68.1628ZM16.7097 68.2399C18.4085 68.2399 25.0927 68.3423 29.6951 63.7398L25.4525 59.4972C22.8122 62.1375 18.6323 62.2399 16.7097 62.2399L16.7097 68.2399ZM29.6951 63.7398C29.9134 63.5216 30.1192 63.2946 30.3124 63.0599L25.6791 59.2476C25.6089 59.3329 25.5335 59.4162 25.4525 59.4972L29.6951 63.7398ZM57.4708 64.1537C60.3576 64.1537 62.1618 61.0287 60.7184 58.5287L55.5223 61.5287C54.6563 60.0287 55.7388 58.1537 57.4708 58.1537V64.1537ZM48.1518 41.0893L66.6315 21.8232L62.3014 17.6698L43.8217 36.936L48.1518 41.0893ZM66.5878 17.6252L62.5137 13.5512L58.2711 17.7938L62.3451 21.8678L66.5878 17.6252ZM46.9853 14.1537V11.9037H40.9853V14.1537H46.9853ZM46.9853 11.9037C46.9853 9.83267 45.3064 8.15372 43.2353 8.15372V14.1537C41.9926 14.1537 40.9853 13.1463 40.9853 11.9037H46.9853ZM32.7353 8.15372C30.6642 8.15372 28.9853 9.83265 28.9853 11.9037H34.9853C34.9853 13.1464 33.9779 14.1537 32.7353 14.1537V8.15372ZM28.9853 11.9037V14.1537H34.9853V11.9037H28.9853ZM30.3872 32.314L20.6421 49.193L25.8383 52.193L35.5834 35.314L30.3872 32.314ZM23.3301 47.6943C20.836 47.6195 18.3069 48.536 16.3991 50.4438L20.6417 54.6864C21.3322 53.9959 22.2402 53.6643 23.1503 53.6916L23.3301 47.6943ZM16.3991 50.4438C14.536 52.3069 13.9549 54.2065 13.5582 55.4564L19.2772 57.2712C19.6406 56.126 19.8761 55.452 20.6417 54.6864L16.3991 50.4438ZM13.5582 55.4564C13.3665 56.0607 13.2586 56.3806 13.1211 56.6555L18.4877 59.3388C18.8703 58.5735 19.1093 57.8001 19.2772 57.2712L13.5582 55.4564ZM13.1211 56.6555C12.9064 57.0849 12.7355 57.479 12.593 57.8061L18.0941 60.2015C18.2431 59.8595 18.3543 59.6056 18.4877 59.3388L13.1211 56.6555ZM12.593 57.8061C12.2777 58.5302 11.9845 59.2083 11.2219 60.3769L16.2466 63.6559C17.2726 62.0837 17.7202 61.0603 18.0941 60.2015L12.593 57.8061ZM11.2219 60.3769C10.7909 61.0372 10.2005 61.8677 9.3623 62.9454L14.0984 66.629C15.0127 65.4535 15.7048 64.4861 16.2466 63.6559L11.2219 60.3769ZM14.2763 68.1811L14.7002 65.2112L8.76047 64.3632L8.33648 67.3331L14.2763 68.1811ZM5.76425 69.9958L10.8821 70.7269L11.7306 64.7872L6.61277 64.0561L5.76425 69.9958ZM26.9853 17.1537V33.0101H32.9853V17.1537H26.9853ZM25.9853 11.9037V17.1537H31.9853V11.9037H25.9853ZM43.2353 5.15372H32.7353V11.1537H43.2353V5.15372ZM49.9853 17.1537V11.9037H43.9853V17.1537H49.9853ZM58.3595 9.30852L43.9086 23.1696L48.062 27.4997L62.5128 13.6386L58.3595 9.30852ZM70.7867 17.5815L62.5575 9.35224L58.3148 13.5949L66.5441 21.8241L70.7867 17.5815ZM51.8762 41.5402L70.8304 21.7794L66.5003 17.6261L47.5461 37.3869L51.8762 41.5402ZM10.8864 70.7276L10.8978 70.7292L11.7403 64.7886L11.7289 64.787L10.8864 70.7276ZM27.9957 64.1537H57.4708V58.1537H27.9957V64.1537ZM60.7184 58.5287L48.5848 37.5126L43.3886 40.5126L55.5223 61.5287L60.7184 58.5287ZM58.3158 13.5074L40.9086 30.2041L45.062 34.5342L62.4691 17.8375L58.3158 13.5074ZM45.9853 32.3691V14.1537H39.9853V32.3691H45.9853ZM42.9853 17.1537H43.9853V11.1537H42.9853V17.1537ZM43.2353 8.15372H32.7353V14.1537H43.2353V8.15372ZM31.9853 17.1537H32.9853V11.1537H31.9853V17.1537ZM29.9853 14.1537V33.814H35.9853V14.1537H29.9853Z" fill="#F2F2F2" mask="url(#path-1-outside-1)"/>
<mask id="path-3-outside-2" maskUnits="userSpaceOnUse" x="5.73036" y="8.15372" width="63" height="61" fill="black">
<rect fill="white" x="5.73036" y="8.15372" width="63" height="61"/>
<path fill-rule="evenodd" clip-rule="evenodd" d="M32.9853 14.1537V30.6537V33.814L23.2402 50.693C21.5381 50.6419 19.8195 51.266 18.5204 52.5651C17.2061 53.8795 16.7977 55.1662 16.4177 56.3638C16.2379 56.9304 16.0645 57.477 15.8044 57.9972C15.6303 58.3453 15.4893 58.6692 15.3436 59.0038C14.8116 60.2256 14.2179 61.5889 11.7304 64.7872C11.7304 64.7872 14.8991 65.2399 16.7097 65.2399C18.5204 65.2399 23.9525 65.2399 27.5738 61.6185C27.7234 61.4689 27.8641 61.3138 27.9958 61.1537H57.4708C58.0482 61.1537 58.409 60.5287 58.1204 60.0287L45.9867 39.0126L64.4665 19.7465L60.3924 15.6725L42.9853 32.3691V30.6537V14.1537H43.9853V11.9037C43.9853 11.4895 43.6495 11.1537 43.2353 11.1537H41.9853H33.9853H32.7353C32.3211 11.1537 31.9853 11.4895 31.9853 11.9037V14.1537H32.9853Z"/>
</mask>
<path fill-rule="evenodd" clip-rule="evenodd" d="M32.9853 14.1537V30.6537V33.814L23.2402 50.693C21.5381 50.6419 19.8195 51.266 18.5204 52.5651C17.2061 53.8795 16.7977 55.1662 16.4177 56.3638C16.2379 56.9304 16.0645 57.477 15.8044 57.9972C15.6303 58.3453 15.4893 58.6692 15.3436 59.0038C14.8116 60.2256 14.2179 61.5889 11.7304 64.7872C11.7304 64.7872 14.8991 65.2399 16.7097 65.2399C18.5204 65.2399 23.9525 65.2399 27.5738 61.6185C27.7234 61.4689 27.8641 61.3138 27.9958 61.1537H57.4708C58.0482 61.1537 58.409 60.5287 58.1204 60.0287L45.9867 39.0126L64.4665 19.7465L60.3924 15.6725L42.9853 32.3691V30.6537V14.1537H43.9853V11.9037C43.9853 11.4895 43.6495 11.1537 43.2353 11.1537H41.9853H33.9853H32.7353C32.3211 11.1537 31.9853 11.4895 31.9853 11.9037V14.1537H32.9853Z" fill="#F2F2F2"/>
<path d="M32.9853 14.1537H35.9853V11.1537H32.9853V14.1537ZM32.9853 33.814L35.5834 35.314L35.9853 34.6178V33.814H32.9853ZM23.2402 50.693L23.1503 53.6916L24.942 53.7454L25.8383 52.193L23.2402 50.693ZM18.5204 52.5651L16.3991 50.4438L16.3991 50.4438L18.5204 52.5651ZM16.4177 56.3638L19.2772 57.2712L19.2772 57.2712L16.4177 56.3638ZM15.8044 57.9972L18.4877 59.3388L18.4877 59.3388L15.8044 57.9972ZM15.3436 59.0038L18.0941 60.2015L18.0941 60.2015L15.3436 59.0038ZM11.7304 64.7872L9.3623 62.9454L6.18851 67.026L11.3061 67.7571L11.7304 64.7872ZM27.5738 61.6185L29.6951 63.7398L29.6951 63.7398L27.5738 61.6185ZM27.9958 61.1537V58.1537H26.5792L25.6791 59.2476L27.9958 61.1537ZM58.1204 60.0287L60.7184 58.5287L60.7184 58.5287L58.1204 60.0287ZM45.9867 39.0126L43.8217 36.936L42.2623 38.5617L43.3886 40.5126L45.9867 39.0126ZM64.4665 19.7465L66.6315 21.8232L68.6654 19.7028L66.5878 17.6252L64.4665 19.7465ZM60.3924 15.6725L62.5138 13.5512L60.4362 11.4736L58.3158 13.5074L60.3924 15.6725ZM42.9853 32.3691H39.9853V39.4036L45.062 34.5342L42.9853 32.3691ZM42.9853 14.1537V11.1537H39.9853V14.1537H42.9853ZM43.9853 14.1537V17.1537H46.9853V14.1537H43.9853ZM31.9853 14.1537H28.9853V17.1537H31.9853V14.1537ZM35.9853 30.6537V14.1537H29.9853V30.6537H35.9853ZM35.9853 33.814V30.6537H29.9853V33.814H35.9853ZM25.8383 52.193L35.5834 35.314L30.3872 32.314L20.6421 49.193L25.8383 52.193ZM20.6417 54.6864C21.3322 53.9959 22.2402 53.6643 23.1503 53.6916L23.3301 47.6943C20.836 47.6195 18.3069 48.536 16.3991 50.4438L20.6417 54.6864ZM19.2772 57.2712C19.6406 56.126 19.8761 55.452 20.6417 54.6864L16.3991 50.4438C14.536 52.3069 13.9549 54.2065 13.5582 55.4564L19.2772 57.2712ZM18.4877 59.3388C18.8703 58.5735 19.1093 57.8001 19.2772 57.2712L13.5582 55.4564C13.3665 56.0607 13.2586 56.3806 13.1211 56.6555L18.4877 59.3388ZM18.0941 60.2015C18.2431 59.8595 18.3543 59.6056 18.4877 59.3388L13.1211 56.6555C12.9064 57.0849 12.7355 57.479 12.593 57.8061L18.0941 60.2015ZM14.0984 66.629C16.7492 63.2208 17.4683 61.6388 18.0941 60.2015L12.593 57.8061C12.1548 58.8125 11.6866 59.957 9.3623 62.9454L14.0984 66.629ZM16.7097 62.2399C15.9843 62.2399 14.8827 62.1442 13.8723 62.0319C13.3864 61.9779 12.9532 61.9238 12.6418 61.8831C12.4864 61.8629 12.3622 61.8461 12.278 61.8345C12.2359 61.8287 12.2038 61.8243 12.1829 61.8213C12.1724 61.8199 12.1647 61.8188 12.16 61.8181C12.1576 61.8178 12.1559 61.8175 12.155 61.8174C12.1546 61.8174 12.1543 61.8173 12.1543 61.8173C12.1542 61.8173 12.1542 61.8173 12.1543 61.8173C12.1543 61.8173 12.1544 61.8173 12.1544 61.8173C12.1545 61.8173 12.1546 61.8174 11.7304 64.7872C11.3061 67.7571 11.3062 67.7571 11.3064 67.7571C11.3064 67.7571 11.3066 67.7571 11.3067 67.7571C11.307 67.7572 11.3073 67.7572 11.3076 67.7573C11.3083 67.7574 11.3092 67.7575 11.3103 67.7576C11.3124 67.758 11.3154 67.7584 11.319 67.7589C11.3264 67.7599 11.3367 67.7614 11.3499 67.7632C11.3763 67.7669 11.414 67.7722 11.4621 67.7788C11.5582 67.792 11.6957 67.8106 11.8657 67.8327C12.205 67.877 12.6772 67.936 13.2097 67.9952C14.2364 68.1093 15.6244 68.2399 16.7097 68.2399V62.2399ZM25.4525 59.4972C22.8122 62.1375 18.6323 62.2399 16.7097 62.2399V68.2399C18.4085 68.2399 25.0927 68.3423 29.6951 63.7398L25.4525 59.4972ZM25.6791 59.2476C25.6089 59.3329 25.5335 59.4162 25.4525 59.4972L29.6951 63.7398C29.9134 63.5216 30.1192 63.2946 30.3124 63.0599L25.6791 59.2476ZM57.4708 58.1537H27.9958V64.1537H57.4708V58.1537ZM55.5223 61.5287C54.6563 60.0287 55.7388 58.1537 57.4708 58.1537V64.1537C60.3576 64.1537 62.1618 61.0287 60.7184 58.5287L55.5223 61.5287ZM43.3886 40.5126L55.5223 61.5287L60.7184 58.5287L48.5848 37.5126L43.3886 40.5126ZM62.3014 17.6698L43.8217 36.936L48.1518 41.0893L66.6315 21.8232L62.3014 17.6698ZM58.2711 17.7938L62.3451 21.8678L66.5878 17.6252L62.5138 13.5512L58.2711 17.7938ZM45.062 34.5342L62.4691 17.8375L58.3158 13.5074L40.9086 30.2041L45.062 34.5342ZM39.9853 30.6537V32.3691H45.9853V30.6537H39.9853ZM39.9853 14.1537V30.6537H45.9853V14.1537H39.9853ZM43.9853 11.1537H42.9853V17.1537H43.9853V11.1537ZM40.9853 11.9037V14.1537H46.9853V11.9037H40.9853ZM43.2353 14.1537C41.9926 14.1537 40.9853 13.1464 40.9853 11.9037H46.9853C46.9853 9.83265 45.3063 8.15372 43.2353 8.15372V14.1537ZM41.9853 14.1537H43.2353V8.15372H41.9853V14.1537ZM33.9853 14.1537H41.9853V8.15372H33.9853V14.1537ZM32.7353 14.1537H33.9853V8.15372H32.7353V14.1537ZM34.9853 11.9037C34.9853 13.1464 33.9779 14.1537 32.7353 14.1537V8.15372C30.6642 8.15372 28.9853 9.83265 28.9853 11.9037H34.9853ZM34.9853 14.1537V11.9037H28.9853V14.1537H34.9853ZM32.9853 11.1537H31.9853V17.1537H32.9853V11.1537Z" fill="#212C3C" mask="url(#path-3-outside-2)"/>
<path fill-rule="evenodd" clip-rule="evenodd" d="M28.1703 42.1537L17.8502 60.0287C17.5615 60.5287 17.9224 61.1537 18.4997 61.1537H57.4709C58.0482 61.1537 58.409 60.5287 58.1204 60.0287L47.8002 42.1537H28.1703Z" fill="#36CC84"/>
<path d="M60.3924 15.6725L64.4665 19.7465L32.5532 53.0178L27.1212 47.5858L60.3924 15.6725Z" fill="#4D81E7"/>
<path d="M27.1212 47.5857L32.5532 53.0178L27.5738 55.2811L24.8578 52.5651L27.1212 47.5857Z" fill="#F2F2F2"/>
<mask id="mask0" mask-type="alpha" maskUnits="userSpaceOnUse" x="9" y="48" width="24" height="24">
<path d="M27.5738 61.6185C23.9525 65.2399 18.5204 65.2399 16.7097 65.2399C14.8991 65.2399 11.7304 64.7872 11.7304 64.7872C14.8991 60.7132 14.9946 59.6167 15.8044 57.9971C16.6142 56.3776 16.5842 54.5013 18.5204 52.5651C21.0205 50.0651 25.0738 50.0651 27.5738 52.5651C30.0739 55.0651 30.0739 59.1185 27.5738 61.6185Z" fill="#F2F2F2"/>
</mask>
<g mask="url(#mask0)">
<path d="M27.5738 61.6185C23.9525 65.2399 18.5204 65.2399 16.7097 65.2399C14.8991 65.2399 11.7304 64.7872 11.7304 64.7872C14.8991 60.7132 14.9946 59.6167 15.8044 57.9971C16.6142 56.3776 16.5842 54.5013 18.5204 52.5651C21.0205 50.0651 25.0738 50.0651 27.5738 52.5651C30.0739 55.0651 30.0739 59.1185 27.5738 61.6185Z" fill="#F2F2F2"/>
<path d="M24.7888 61.02C27.6828 66.1064 17.2308 75.8357 14.2527 72.8576C11.2745 69.8795 3.863 63.4832 6.84113 60.505C9.81925 57.5269 12.6477 50.3314 14.7415 55.7751C16.8352 61.2188 21.8948 55.9336 24.7888 61.02Z" fill="#36CC84"/>
</g>
</svg>
